<svg width="45" height="32" viewBox="0 0 45 32" fill="none" xmlns="http://www.w3.org/2000/svg">
<path d="M15.5409 1.59378C14.8911 1.8707 14.2331 2.1344 13.5856 2.41531C13.0635 2.64242 12.555 2.88973 12.0402 3.12747C11.8695 3.16493 11.7497 3.27848 11.5987 3.34321C11.4563 3.40425 11.5709 3.32145 11.4557 3.42018C11.3713 3.43064 11.3308 3.485 11.2691 3.52506C11.25 3.53751 11.2243 3.54213 11.206 3.55543C11.143 3.60113 11.1384 3.63228 11.1054 3.69659C11.0313 3.76217 11.007 3.75566 10.9605 3.66878C10.9105 3.57538 10.8624 3.48121 10.8189 3.3856C10.8038 3.35229 10.7849 3.31821 10.7848 3.28257C10.7847 3.26793 10.8072 3.2601 10.8185 3.24886C11.0428 3.21118 11.2821 3.22263 11.5115 3.22293C11.6959 3.20182 11.8863 3.23751 12.0701 3.22255C12.1723 3.21423 12.2538 3.18331 12.3489 3.15419C12.6164 3.1508 12.8577 3.05568 13.1085 2.99452C13.3955 2.94023 13.2538 2.9716 13.5338 2.90055C13.7267 2.83653 13.9315 2.78528 14.1139 2.7005C14.1725 2.67327 14.2238 2.63621 14.2812 2.60727C14.3376 2.5788 14.5143 2.50431 14.455 2.52841C12.0561 3.50358 9.6595 4.48314 7.26195 5.4605C28.1948 -3.06821 6.68607 5.69626 7.52808 5.3488C10.0313 4.31583 12.5524 3.31324 15.0573 2.28298C17.4895 1.28259 10.1828 4.26654 7.74615 5.25919C7.70774 5.27484 7.82403 5.22973 7.86243 5.21406C10.3745 4.18885 12.8859 3.16237 15.3974 2.13651C18.1785 1.62037 15.5692 2.09628 8.17473 5.09362C8.1425 5.10669 8.23779 5.06511 8.27037 5.05266C8.41742 4.99646 8.43321 5.01191 8.55847 4.91268C8.59689 4.90112 8.63851 4.89527 8.67373 4.878C8.71401 4.85824 8.74337 4.8257 8.78158 4.80326C8.86637 4.75347 8.91993 4.74165 9.0089 4.69928C9.12051 4.64612 9.1358 4.63222 9.23658 4.56842C9.33844 4.51679 9.44088 4.46902 9.54318 4.41897C9.57409 4.40386 9.59855 4.3799 9.63105 4.36734C9.86367 4.27743 9.5751 4.43403 9.78517 4.31196C12.298 3.27947 14.8037 2.23525 17.3234 1.21452C17.3811 1.19115 17.508 1.2446 17.543 1.26559C17.7791 1.40702 17.8698 1.64401 17.9656 1.86027C17.9705 1.94124 17.9919 2.02269 17.9803 2.10319C17.953 2.29268 17.52 2.71969 17.378 2.88003C17.1056 3.18506 16.8417 3.49413 16.572 3.80089C16.3715 4.06086 16.1577 4.31215 15.9412 4.56275C15.8195 4.64882 15.7237 4.75677 15.6126 4.85116C15.5125 4.93618 15.3988 5.01143 15.297 5.09555C15.1495 5.22673 15.0091 5.37036 14.8408 5.48418C14.8045 5.5087 14.7636 5.52796 14.725 5.54985C14.6859 5.57633 14.6468 5.60281 14.6078 5.62929C14.4227 5.74096 14.253 5.87684 14.0559 5.97448C13.931 6.03629 13.7968 6.08374 13.6679 6.13938C10.7892 7.61336 7.68818 8.7657 4.52861 9.74176C3.82371 9.98228 3.12526 10.2408 2.40813 10.4551C-0.155274 11.5683 -3.45922 12.8431 8.99842 7.79112C9.03908 7.77464 8.92114 7.83097 8.87925 7.84514C8.83951 7.85859 8.79653 7.86402 8.75517 7.87345C8.69555 7.91383 8.61015 7.90829 8.54671 7.94095C8.51211 7.95877 8.4874 7.98752 8.45541 8.00847C8.35151 8.07652 8.29428 8.09622 8.20303 8.18391C8.06381 8.29493 7.96951 8.3754 7.92192 8.53384C7.88276 8.60911 7.86894 8.4618 7.9115 8.46752C7.93691 8.47093 7.9565 8.4884 7.979 8.49884C8.00354 8.50469 8.02718 8.51466 8.05261 8.51639C8.11066 8.52036 8.16856 8.50506 8.2268 8.50488C8.40606 8.50433 8.58644 8.51614 8.7654 8.52294C9.12403 8.53235 9.48269 8.5375 9.84148 8.53909C9.9411 8.53954 10.0409 8.54554 10.1403 8.54083C10.2401 8.5361 10.3387 8.52084 10.4378 8.51084C11.0317 8.44376 11.5645 8.27768 12.0775 8.02471C-0.750456 12.4485 3.35134 11.79 5.79786 10.5347C5.94805 10.4197 6.13839 10.3486 6.29864 10.2461C6.34058 10.2193 6.54091 10.0639 6.582 10.0323C6.86005 9.82154 7.13166 9.60475 7.39734 9.38316C7.61382 9.22165 7.79097 9.02711 7.99918 8.85811C8.02516 8.8008 8.09831 8.77687 8.13751 8.72941C8.15747 8.70525 8.16663 8.67595 8.18269 8.64983C8.23259 8.56868 8.29333 8.49821 8.36051 8.42667C8.47837 8.34723 8.53654 8.21813 8.65569 8.14138C8.81585 8.03821 8.65585 8.18687 8.79363 8.04459C8.8166 8.02691 8.8419 8.01115 8.86253 7.99157C8.8851 7.97014 8.89904 7.94287 8.92256 7.92217C8.99169 7.8613 9.09357 7.84362 9.16637 7.7899C9.1987 7.76604 9.22159 7.73452 9.24921 7.70683C9.40144 7.62593 9.57483 7.56954 9.71893 7.47771C10.0415 7.27213 9.56414 7.54344 9.93012 7.34103C10.0568 7.26652 10.1739 7.1765 10.3038 7.10591C10.3536 7.07886 10.4096 7.06055 10.4597 7.03401C10.5724 6.97442 10.6553 6.91026 10.7576 6.83806C10.8127 6.80473 10.8716 6.77534 10.923 6.73807C10.9812 6.69588 11.0297 6.64515 11.0852 6.60051C11.2812 6.44294 11.4849 6.29239 11.6675 6.12376C11.894 5.94969 12.1005 5.75541 12.3443 5.59782C12.3849 5.56174 12.423 5.52348 12.4663 5.48957C12.5044 5.45969 12.5511 5.43792 12.5878 5.40684C12.6236 5.37654 12.6493 5.3388 12.6825 5.30653C12.7145 5.27546 12.7537 5.24958 12.7835 5.21699C13.0089 4.97041 12.7323 5.21781 12.9774 5.01001C13.0103 4.97288 13.038 4.93212 13.0761 4.89863C13.1105 4.86836 13.1544 4.84667 13.1932 4.82031C13.3427 4.71871 13.4978 4.62281 13.6296 4.5058C13.8292 4.37193 13.969 4.18998 14.1581 4.04757C14.2603 3.93325 14.36 3.80971 14.4809 3.70805C14.7345 3.49479 14.4111 3.81113 14.6439 3.5755C14.7989 3.44417 14.9381 3.30429 15.1416 3.22451C17.5382 1.84081 15.2919 3.13171 22.8128 0.134625C22.8512 0.119298 22.893 0.109833 22.9346 0.102302C22.9808 0.093959 23.0289 0.0953382 23.0751 0.0871941C23.1691 0.0706092 23.2603 0.0440314 23.354 0.0259663C23.6469 -0.0101297 23.9426 0.00367292 24.2375 0.00111713C24.5785 -0.0196912 24.7949 0.201707 24.9698 0.415145C25.1195 0.633749 25.1631 0.874061 25.1903 1.12002C25.2026 1.34475 25.1958 1.57113 25.1847 1.79605C25.1578 2.06239 25.0262 2.32969 24.8255 2.53815C24.7591 2.62135 24.6763 2.69576 24.61 2.779C24.5872 2.80769 24.5762 2.8433 24.548 2.8684C24.3457 3.04834 24.6005 2.70742 24.4036 3.00088C24.3109 3.04726 24.2661 3.12443 24.2011 3.18708C24.1176 3.26761 24.0005 3.33311 23.9083 3.40707C23.7958 3.47204 23.6991 3.55098 23.5969 3.62556C23.5066 3.69147 23.4076 3.73841 23.3206 3.80817C23.2222 3.84848 23.1691 3.92896 23.066 3.96324C23.0395 3.97208 23.0062 3.96502 22.982 3.97782C22.723 4.11501 23.0998 3.9921 22.8075 4.07546C22.7795 4.09514 22.7534 4.117 22.7233 4.13448C22.646 4.1794 22.5599 4.21295 22.4815 4.25662C22.32 4.34665 22.1718 4.44261 22.0297 4.55288C21.8324 4.69756 21.6822 4.87969 21.4953 5.03242C21.3308 5.15487 21.4097 5.09258 21.2582 5.21899C21.0465 5.41389 20.8232 5.59882 20.6049 5.78847C20.3139 6.07832 20.0124 6.36143 19.7072 6.64107C19.4002 6.93451 19.0583 7.20207 18.699 7.45015C18.3521 7.7005 18.0123 7.95746 17.679 8.22043C17.3706 8.43347 17.0864 8.67467 16.7409 8.84608C16.5515 8.9639 16.3403 9.049 16.1372 9.14749C15.8345 9.29433 16.1841 9.14579 15.86 9.27788C15.5695 9.42529 15.2917 9.58999 14.9792 9.70407C14.8626 9.76513 14.7918 9.80578 14.6677 9.8564C12.1595 10.8799 9.66152 11.9208 7.13971 12.9206C4.72385 13.8785 16.7805 9.05052 14.3501 9.98241C11.8567 10.9386 9.21674 12.0421 6.67271 13.1048C4.1832 14.1557 1.37769 15.2812 13.6337 10.2665C13.6766 10.2489 13.5444 10.2953 13.5022 10.3139C13.4002 10.3587 13.3048 10.4134 13.2051 10.4617C10.5911 11.581 12.123 10.926 5.52983 13.6048C5.47616 13.6266 5.41434 13.6316 5.3601 13.6524C5.30557 13.6733 5.25948 13.7075 5.20536 13.7292C5.13525 13.7572 4.91575 13.8166 4.84354 13.8368C4.72126 13.8703 4.61716 13.9393 4.49653 13.9756C4.43443 13.9944 4.3672 13.9987 4.30432 14.0155C4.13938 14.0595 3.96139 14.1192 3.79889 14.1717C3.7475 14.1846 3.69554 14.1961 3.64473 14.2105C3.59771 14.2239 3.55337 14.2437 3.50561 14.2551C3.29921 14.3043 3.07408 14.2965 2.86189 14.2975C2.63692 14.2896 2.41316 14.2878 2.19406 14.3394C2.10357 14.3607 2.01915 14.3973 1.92984 14.4218C1.88866 14.43 1.84434 14.4308 1.80632 14.4464C1.74246 14.4725 1.60203 14.6064 1.66601 14.5805C4.13252 13.5859 6.58825 12.5719 9.03888 11.5504C9.06443 11.5398 8.98163 11.5419 8.95343 11.5457C8.92605 11.5493 8.90212 11.5632 8.87647 11.572C8.85311 11.5678 8.82823 11.5676 8.8064 11.5595C8.74527 11.5368 8.71883 11.4984 8.68753 11.4502C8.6761 11.4326 8.66124 11.3818 8.68299 11.3902C8.70936 11.4004 8.72643 11.4225 8.74815 11.4386C8.90026 11.4999 9.0397 11.5858 9.19482 11.6419C9.28909 11.6759 9.38831 11.6998 9.48289 11.7333C9.70764 11.8472 9.95738 11.8751 10.2146 11.8641C10.3328 11.8566 10.45 11.8406 10.5686 11.8383C10.6023 11.8377 10.6367 11.8444 10.6695 11.8382C10.7021 11.8321 10.7299 11.8144 10.7601 11.8025C10.8798 11.7939 10.9805 11.7422 11.0773 11.6862C11.1131 11.6655 11.1423 11.6365 11.1808 11.6194C11.2627 11.583 11.3555 11.5668 11.4411 11.5368C13.8428 9.98386 1.8011 15.3221 4.24515 14.438C6.8102 13.5101 9.27231 12.3953 11.788 11.3774C11.8228 11.3633 11.862 11.3572 11.8963 11.3422C12.1836 11.217 11.788 11.3559 12.1106 11.2492C14.6991 10.2835 12.2012 11.2139 4.98496 14.1537C4.92442 14.1784 5.10735 14.1067 5.16789 14.082C5.35759 14.0048 5.54292 13.9215 5.73381 13.8462C6.05964 13.6816 6.40473 13.5455 6.7234 13.3704C6.97405 13.2568 7.17481 13.0883 7.41999 12.9689C7.45354 12.9429 7.48291 12.9126 7.52062 12.8909C7.59985 12.8454 7.69461 12.8222 7.7783 12.7826C7.91174 12.7196 8.04196 12.6486 8.16881 12.5768C8.65112 12.3437 8.00154 12.6645 8.44509 12.424C8.48757 12.401 8.53641 12.3868 8.57856 12.3634C8.61791 12.3415 8.65188 12.3135 8.68854 12.2885C8.72341 12.2583 8.75207 12.2219 8.79315 12.1977C8.82587 12.1784 8.86768 12.1731 8.90494 12.1608C9.01657 12.1033 9.11829 12.0328 9.22839 11.9736C9.26454 11.9541 9.30694 11.9425 9.34002 11.9196C9.384 11.8891 9.41635 11.8484 9.45712 11.8149C9.49553 11.7833 9.53725 11.7547 9.57732 11.7246C9.70693 11.6516 9.80316 11.5439 9.92394 11.4629C10.0481 11.3797 10.1883 11.3106 10.3141 11.228C10.4038 11.2044 10.4595 11.1365 10.5396 11.1011C10.5761 11.085 10.6208 11.0845 10.657 11.0677C10.6968 11.0493 10.7256 11.0172 10.7643 10.9971C10.7955 10.9808 10.8315 10.972 10.8651 10.9595C10.9005 10.9408 10.9358 10.922 10.9711 10.9033C11.2479 10.7966 11.4692 10.6222 11.6925 10.4536C11.8526 10.3648 12.0103 10.2689 12.1806 10.1938C12.4805 10.0617 12.1502 10.2387 12.4496 10.0691C12.7039 9.91708 12.9595 9.76945 13.1861 9.58848C13.4413 9.46556 13.6374 9.28085 13.8519 9.11636C14.0412 8.99292 14.2035 8.84237 14.3917 8.71794C14.7136 8.50511 14.36 8.76877 14.6464 8.54865C14.821 8.44182 14.9789 8.31477 15.1551 8.20965C15.4209 8.05104 15.1775 8.22445 15.4341 8.02941C15.7059 7.86735 15.9058 7.6437 16.1322 7.44229C16.2977 7.2624 16.4495 7.07442 16.6197 6.89748C16.6449 6.87831 16.6737 6.86203 16.6953 6.83998C16.7183 6.81636 16.7294 6.78569 16.7522 6.76186C16.7688 6.74449 16.7933 6.73355 16.8119 6.71772C16.877 6.66248 16.9399 6.61109 17.0107 6.56038C17.1715 6.35447 17.3065 6.12979 17.5135 5.95353C17.6895 5.75666 17.9149 5.59165 18.1426 5.4377C18.1897 5.4032 18.2352 5.36717 18.2839 5.3342C18.4464 5.22402 18.3788 5.28759 18.5445 5.16995C18.6751 5.0773 18.7903 4.96993 18.9168 4.8734C19.06 4.78021 19.2189 4.70118 19.3609 4.60745C19.3962 4.58415 19.421 4.55006 19.4592 4.5302C19.495 4.51162 19.5385 4.50644 19.5781 4.49456C22.1249 3.11984 25.0562 2.31625 27.7245 1.11053C28.0253 1.03117 28.3315 0.947395 28.6483 0.927838C28.8419 0.939968 29.0518 0.906956 29.244 0.928732C29.3402 0.939624 29.4324 0.967966 29.5273 0.984897C29.8385 1.08224 29.9703 1.21971 30.1325 1.45433C30.2663 1.65304 30.3009 1.86764 30.3126 2.0908C30.3255 2.37887 30.1794 2.64022 30.0397 2.8958C29.9051 3.11676 29.7699 3.35196 29.5458 3.51942C29.4643 3.62817 29.3421 3.70649 29.2402 3.8006C29.2119 3.82674 29.1903 3.85864 29.1569 3.88014C29.1256 3.90024 29.0857 3.90862 29.0502 3.92286C28.8841 3.99053 28.7681 4.11956 28.6167 4.20412C28.3081 4.37652 28.697 4.10537 28.3859 4.3344C28.3463 4.35962 28.3039 4.38204 28.2672 4.41006C28.145 4.50319 28.0401 4.61523 27.9239 4.71349C27.8515 4.77472 27.7746 4.82874 27.6971 4.88521C27.4877 5.05256 27.2531 5.19441 27.0305 5.34884C26.7632 5.49797 26.5452 5.701 26.2899 5.86374C26.0658 6.02068 25.8541 6.18456 25.6433 6.35445C25.4572 6.5396 25.2038 6.66563 24.988 6.82388C24.7174 7.02596 24.411 7.19096 24.1157 7.36632C23.7691 7.53712 23.4681 7.76227 23.1397 7.95385C23.0254 8.02156 22.9222 8.13014 22.8135 8.20095C22.7813 8.2219 22.7419 8.23376 22.7074 8.25189C22.595 8.31087 22.6082 8.30872 22.5066 8.38878C22.2878 8.57605 22.0221 8.71657 21.7564 8.85206C21.6681 8.91693 21.6287 8.95472 21.524 8.99884C21.4838 9.01581 21.4366 9.02018 21.3978 9.03929C21.3555 9.06008 21.3234 9.09287 21.2838 9.11702C21.2069 9.16389 21.1243 9.20398 21.0455 9.24856C20.9707 9.29329 20.8829 9.32044 20.8068 9.36326C20.7716 9.38304 20.7436 9.41132 20.7073 9.42957C20.6723 9.44712 20.6286 9.45073 20.5947 9.46969C20.2379 9.66925 20.7471 9.44158 20.3747 9.5996C20.2651 9.7039 20.1067 9.75052 19.9743 9.82612C19.9229 9.85549 19.8803 9.8946 19.8302 9.92546C19.3938 10.1939 19.972 9.80966 19.5343 10.1058C19.35 10.2062 19.2054 10.3481 19.0369 10.4633C19.0147 10.4785 18.8083 10.5934 18.7813 10.6084C18.5188 10.7672 18.2618 10.9335 17.9889 11.0792C17.7386 11.2658 17.4411 11.3929 17.1519 11.5302C16.9633 11.6431 16.7536 11.7323 16.565 11.8446C16.229 12.0445 16.5905 11.8694 16.2458 12.0257C16.1045 12.1172 15.9403 12.1787 15.7899 12.2581C15.6488 12.3325 15.523 12.4086 15.3729 12.4714C15.081 12.6367 14.7574 12.7599 14.4637 12.9243C14.1961 13.0565 13.9246 13.1845 13.6431 13.2954C13.4168 13.4387 13.155 13.5419 12.9384 13.6951C12.8355 13.7416 12.7499 13.8034 12.6587 13.8622C12.569 13.92 12.4855 13.9469 12.3995 14.0128C12.3732 14.0207 12.3427 14.0221 12.3206 14.0364C12.2911 14.0554 12.2794 14.0896 12.2502 14.1089C12.2057 14.1384 12.1435 14.1421 12.0923 14.1626C12.0158 14.1933 12.0001 14.2051 11.9285 14.2451L11.8457 14.2988C11.8224 14.3234 11.8041 14.3518 11.776 14.3725C11.749 14.3924 11.7113 14.3999 11.6832 14.4186C11.6077 14.4691 11.5531 14.5389 11.4783 14.5901C11.4397 14.6165 11.3949 14.6359 11.3532 14.6588C11.0656 14.8331 10.8215 15.0504 10.5588 15.2489C10.3415 15.4355 10.1361 15.6309 9.92663 15.8235C9.86007 15.8679 9.80716 15.9919 9.74563 15.8766C9.71045 15.8107 9.69132 15.75 9.66642 15.6813C9.66306 15.6552 9.64848 15.6285 9.65632 15.6031C9.68008 15.5262 9.93858 15.5597 9.99557 15.55C10.032 15.5438 10.0649 15.5279 10.0996 15.5168C10.138 15.5031 10.1744 15.4846 10.2148 15.4756C10.7221 15.3632 9.99885 15.563 10.5354 15.4179C10.7192 15.3681 10.9004 15.3088 11.0833 15.2565C14.9436 13.6632 1.71033 19.1387 5.17808 17.6446C7.81304 16.4143 4.34809 18.0285 12.8661 14.4993C15.2514 13.5111 3.27099 18.3588 5.68705 17.4242C8.21833 16.4452 10.7175 15.4086 13.2118 14.3657C15.5819 13.3746 3.57011 18.0244 6.066 17.2793C6.1956 17.2634 6.27268 17.1738 6.37616 17.122C6.41064 17.1047 6.45299 17.1009 6.48825 17.0847C6.57431 17.0453 6.63094 16.9971 6.7032 16.9433C6.87425 16.8631 7.0194 16.7415 7.19974 16.676C7.24276 16.6604 7.29172 16.6553 7.33133 16.6343C7.38167 16.6076 7.42059 16.5683 7.46522 16.5353C7.8068 16.322 8.12746 16.0875 8.44572 15.8508C8.73034 15.6577 9.00452 15.4538 9.29505 15.2669C9.40344 15.1792 9.53906 15.1136 9.6486 15.0276C9.67814 15.0044 9.69828 14.9737 9.72742 14.9502C9.91206 14.8009 9.73044 14.987 9.88983 14.8116C9.96624 14.7113 10.0955 14.6615 10.1923 14.5802C10.2356 14.5438 10.2945 14.4841 10.3337 14.4454C10.3962 14.3895 10.4278 14.3129 10.4899 14.2567C10.5325 14.2182 10.6626 14.1437 10.7117 14.1112C10.9806 13.9334 10.6827 14.1183 10.9504 13.9552C11.1019 13.8917 11.2141 13.7837 11.3463 13.6993C11.4728 13.6184 11.6159 13.5495 11.754 13.4835C11.7933 13.4515 11.8296 13.4167 11.8719 13.3876C12.0063 13.295 12.1589 13.2178 12.2936 13.125C12.3955 13.0548 12.4892 12.9765 12.5888 12.904C12.798 12.7618 12.9789 12.5879 13.1911 12.4489C13.2929 12.3822 13.4043 12.3265 13.5086 12.2625C13.63 12.1814 13.7599 12.108 13.9044 12.0586C13.9411 12.046 13.9824 12.0431 14.0175 12.0277C14.3074 11.9006 13.9291 12.0172 14.2362 11.9317C14.4844 11.7822 14.7583 11.6638 15.002 11.5081C15.2957 11.351 15.5755 11.1768 15.8641 11.0131C16.1726 10.8248 16.4977 10.6577 16.8181 10.4843C16.9548 10.3692 17.1219 10.2951 17.2858 10.2135C17.4398 10.1368 17.5835 10.0447 17.7336 9.96282C18.0233 9.80588 18.3076 9.64772 18.5762 9.46592C18.6219 9.43895 18.665 9.40851 18.7134 9.385C18.7588 9.3629 18.8103 9.3506 18.8565 9.32965C19.0819 9.22756 18.9155 9.28994 19.1194 9.17879C19.1853 9.14283 19.2582 9.11656 19.3269 9.08445C19.3643 9.0565 19.3981 9.02479 19.439 9.00059C19.4786 8.97718 19.5267 8.96529 19.5669 8.9426C19.6597 8.89025 19.7112 8.82907 19.8022 8.77291C19.8797 8.72503 19.9671 8.68935 20.047 8.64427C20.0909 8.61901 20.1333 8.59186 20.1787 8.5685C20.4065 8.45118 20.2517 8.54846 20.4696 8.42795C20.6176 8.34613 20.7567 8.25277 20.8934 8.15867C20.9397 8.13523 20.9859 8.11179 21.0321 8.08834C21.0795 8.07238 21.1295 8.06108 21.1741 8.04044C21.2203 8.0191 21.2586 7.98744 21.3027 7.9633C21.4258 7.89601 21.5562 7.83492 21.685 7.77571C21.9078 7.68272 22.0825 7.53104 22.306 7.43956C22.3421 7.4262 22.3809 7.41708 22.4142 7.39947C22.4522 7.37945 22.4834 7.35164 22.518 7.32771C25.0371 6.30887 27.5488 5.27713 30.0752 4.27117C30.0838 4.26774 30.343 4.25547 30.355 4.25639C30.4042 4.26016 30.4514 4.27454 30.4996 4.28361C30.8778 4.43791 30.9958 4.55869 31.1579 4.88685C31.2967 5.24726 31.1693 5.60608 31.0673 5.95965C30.8951 6.39448 30.7066 6.82456 30.5152 7.25371C30.4063 7.45851 30.2904 7.66753 30.1272 7.84708C30.083 7.89568 29.8927 8.07395 29.8526 8.11187C29.441 8.46582 29.0574 8.83987 28.6944 9.22891C28.4538 9.51619 28.1871 9.78671 27.9387 10.0689C27.845 10.1417 27.7817 10.2349 27.6726 10.2939C27.6365 10.3134 27.5945 10.3245 27.5586 10.3442C27.2089 10.537 27.7348 10.2816 27.3356 10.4697C27.2274 10.5599 27.0919 10.6129 26.9643 10.6784C26.8207 10.7521 26.6825 10.8314 26.536 10.9021C26.243 11.0451 25.9773 11.2229 25.6867 11.3688C25.386 11.5129 25.0891 11.6599 24.8034 11.8243C24.3654 12.0529 23.8976 12.2379 23.4515 12.4545C23.0265 12.6902 22.5738 12.8858 22.13 13.0944C21.7408 13.2726 21.358 13.4562 20.9881 13.6617C20.7486 13.8064 20.4795 13.9116 20.227 14.0388C20.0966 14.1045 19.9712 14.1768 19.8424 14.2446C19.7749 14.274 19.7049 14.2998 19.6398 14.3328C19.5769 14.3647 19.5206 14.4049 19.4593 14.4388C19.2044 14.5801 18.9477 14.7202 18.6901 14.8582C18.2506 15.0587 17.8511 15.3115 17.4143 15.5157C16.9898 15.7279 16.558 15.9293 16.1224 16.125C16.0515 16.1571 15.9821 16.1916 15.9096 16.2211C13.4044 17.2392 10.9166 18.2878 8.38945 19.2675C6.0051 20.1919 13.1171 17.3463 15.4817 16.3871C15.5514 16.3588 15.3435 16.4456 15.2744 16.4748C14.9777 16.6001 15.1058 16.547 14.8085 16.6676C14.3456 16.8981 13.8578 17.0891 13.3805 17.2971C12.8691 17.5027 12.3675 17.7247 11.8693 17.9518C11.5593 18.1099 11.2116 18.2161 10.9283 18.4073C10.6464 18.5845 10.3777 18.7716 10.1247 18.9768C9.9427 19.1628 9.7476 19.3401 9.57387 19.5316C9.52016 19.656 9.46626 19.8351 9.36441 19.6093C9.35933 19.5957 9.27521 19.4648 9.34288 19.4275C9.40348 19.394 9.89176 19.4222 9.97393 19.4236C10.4629 19.4226 10.9535 19.4482 11.4407 19.4087C11.5192 19.3902 11.597 19.3696 11.6762 19.3534C11.759 19.3364 11.8444 19.3286 11.9264 19.3093C12.2648 19.2294 12.5921 19.0908 12.8941 18.9439C15.4874 17.9275 13.4109 18.7402 6.12567 21.6981C6.04974 21.7289 6.27677 21.6352 6.35218 21.6035C6.5669 21.5133 6.76747 21.4146 6.96978 21.3063C7.32531 21.119 7.70316 20.9593 8.05108 20.7622C8.09924 20.7348 8.14651 20.7063 8.19554 20.6801C8.31668 20.6152 8.35222 20.6108 8.45946 20.5321C8.56247 20.4564 8.65947 20.3666 8.75569 20.2848C9.16685 20.0476 8.5452 20.4147 8.9282 20.1603C8.95654 20.1414 8.99258 20.1323 9.02281 20.1157C9.11947 20.0624 9.20209 19.9919 9.29479 19.9339C9.47225 19.7243 9.71489 19.5659 9.92559 19.3827C10.1525 19.1913 10.3444 18.971 10.5383 18.7559C10.6297 18.6548 10.7495 18.5758 10.8528 18.4843C10.8834 18.4571 10.9074 18.425 10.9393 18.3989C11.011 18.3401 11.0933 18.2909 11.1688 18.2355C11.2593 18.1924 11.327 18.1229 11.4145 18.0766C11.4534 18.056 11.5007 18.0482 11.5395 18.0274C11.6656 17.9602 11.7794 17.8591 11.8853 17.7721C12.1137 17.6145 12.3324 17.4504 12.5661 17.2976C12.597 17.2673 12.6221 17.2322 12.6587 17.2068C12.692 17.1836 12.736 17.1737 12.7724 17.154C12.8311 17.1222 12.964 17.0323 13.0184 17C13.1037 16.9494 13.1921 16.9025 13.2774 16.8519C13.3727 16.8234 13.4336 16.7534 13.5168 16.7106C13.5546 16.6912 13.5997 16.6834 13.6378 16.6643C13.7424 16.6117 13.8462 16.5378 13.9422 16.4748C14.0258 16.4415 14.0878 16.3817 14.166 16.3421C14.2131 16.3183 14.2668 16.3047 14.3143 16.2813C14.4821 16.1989 14.6274 16.0869 14.769 15.9771C14.9919 15.8288 15.1811 15.647 15.4028 15.4977C15.4418 15.4714 15.6529 15.3512 15.6993 15.3246C16.014 15.1232 16.3508 14.9474 16.6875 14.7733C17.2136 14.4955 17.6725 14.1399 18.1429 13.8019C18.5076 13.5242 18.8917 13.2599 19.2204 12.9517C19.4657 12.7597 19.6687 12.5302 19.9294 12.3522C19.9598 12.3204 19.9861 12.2854 20.0207 12.2568C20.0703 12.2157 20.201 12.1432 20.2571 12.1076C20.3856 12.026 20.5143 11.9451 20.6392 11.8596C23.1011 10.4964 26.5028 9.40274 28.665 8.52766C28.7248 8.50346 28.7916 8.49344 28.853 8.47233C28.9087 8.45319 28.9617 8.42884 29.016 8.40709C29.0716 8.39417 29.1284 8.38461 29.1827 8.36833C29.3406 8.32098 29.3041 8.3057 29.466 8.27523C29.7423 8.22321 29.4784 8.29403 29.7597 8.25916C29.8031 8.25379 29.8435 8.23741 29.8854 8.22654C29.9415 8.22737 30.2945 8.14006 30.3242 8.15354C30.4233 8.19856 30.5362 8.33631 30.6014 8.40677C30.7746 8.60322 30.8397 8.84108 30.9257 9.0692C31.0337 9.32214 31.0549 9.56953 31.0246 9.83463C30.9686 10.2242 30.7324 10.5764 30.5311 10.9256C30.4473 11.0839 30.325 11.2274 30.2416 11.3856C30.165 11.5308 30.2383 11.4497 30.1302 11.5476C29.959 11.8663 30.192 11.4521 30.035 11.6824C30.0143 11.7128 30.0067 11.7488 29.9848 11.7786C29.969 11.8002 29.9409 11.8139 29.9234 11.8345C29.7913 11.9898 29.9278 11.874 29.7851 11.9835C29.7595 12.0132 29.7381 12.0457 29.7083 12.0726C29.6793 12.0986 29.6403 12.1158 29.6101 12.1409C29.5736 12.1713 29.5455 12.2082 29.509 12.2386C29.4731 12.2683 29.4297 12.2912 29.3935 12.3206C29.3137 12.3853 29.2417 12.4565 29.1634 12.5225C28.9092 12.7491 28.6195 12.9418 28.3086 13.1113C28.0218 13.2841 27.7226 13.4444 27.443 13.6248C27.1657 13.7968 26.8865 13.967 26.5946 14.1221C26.5508 14.1447 26.5057 14.1655 26.4632 14.1899C26.3217 14.2712 26.1863 14.3604 26.0361 14.4312C25.766 14.5585 26.0073 14.4131 25.7566 14.5774C25.5611 14.6793 25.3602 14.7779 25.1744 14.892C24.7912 15.1272 25.2804 14.8602 24.8724 15.0761C24.822 15.108 24.7746 15.1436 24.7212 15.1719C24.672 15.1981 24.6165 15.2148 24.5657 15.2389C24.3588 15.3368 24.1598 15.4493 23.9612 15.5584C23.9122 15.5828 23.8598 15.6031 23.8142 15.6317C23.7671 15.6611 23.7298 15.7001 23.6846 15.7315C23.4896 15.867 23.2775 15.9851 23.0764 16.1139C22.7724 16.298 22.4627 16.4749 22.1656 16.6672C21.895 16.8341 21.6211 16.9962 21.3369 17.1466C21.1433 17.2359 20.9812 17.3669 20.7944 17.4643C20.6533 17.5198 20.7204 17.4889 20.5925 17.5564C20.5616 17.5825 20.5306 17.6085 20.4997 17.6346C20.4646 17.6562 20.4258 17.6742 20.3945 17.6995C20.3526 17.7333 20.3215 17.7756 20.2814 17.811C20.1644 17.9143 20.0294 18.007 19.8997 18.0987C19.6164 18.2874 19.2887 18.4163 19.0019 18.6012C18.7049 18.7598 18.4347 18.9503 18.1405 19.1122C17.8195 19.3033 17.4862 19.4735 17.1331 19.6207C16.8238 19.7643 16.5074 19.8968 16.2125 20.0617C6.21535 24.1267 6.24168 24.1175 15.8729 20.1962C15.9307 20.1727 15.7571 20.2432 15.6993 20.2669C15.6461 20.2886 15.5914 20.3078 15.54 20.3323C15.0397 20.5712 15.7786 20.2477 15.2192 20.4876C14.8267 20.6495 14.4463 20.831 14.0555 20.9954C11.4842 22.1671 8.73412 23.1823 6.15635 24.2277C5.91598 24.3252 5.95436 24.2886 5.69923 24.3707C5.61683 24.3972 5.53725 24.4295 5.45626 24.4588C5.37346 24.4904 5.29258 24.5256 5.20787 24.5534C5.02941 24.6119 4.84321 24.6524 4.66245 24.7058C4.39578 24.7845 4.13076 24.8681 3.86756 24.9546C3.6635 25.0578 3.42759 25.1065 3.21437 25.1918C3.15604 25.2151 2.98946 25.2982 3.04769 25.2747C5.4654 24.3 12.6519 21.2764 10.2889 22.3374C7.83086 23.4414 5.27243 24.3814 2.76419 25.4033C5.19524 24.412 7.62636 23.4204 10.0572 22.4292C10.0251 22.4455 9.99538 22.466 9.96067 22.4782C9.91247 22.4951 9.83269 22.4926 9.78523 22.5126C9.73188 22.5352 9.6896 22.573 9.63791 22.5981C9.61231 22.6096 9.49219 22.6626 9.47082 22.6772C9.44356 22.6959 9.4273 22.7244 9.39923 22.7422C9.3775 22.756 9.34621 22.7562 9.32447 22.7699C9.20046 22.8484 9.32292 22.814 9.22161 22.8363C9.12116 22.6197 9.15713 22.6934 9.00767 22.3994C8.97584 22.3368 8.92778 22.2786 8.91056 22.2121C8.9004 22.1728 9.10779 22.175 9.127 22.1744C9.44653 22.1815 9.76607 22.1869 10.0857 22.187C10.3542 22.1761 10.6282 22.2184 10.8946 22.1772C11.0514 22.153 11.2028 22.1087 11.3572 22.0755C11.9268 21.9617 12.4721 21.7882 13.023 21.6254C13.6277 21.4265 14.2311 21.2247 14.8359 21.0258C14.9692 20.9838 15.2505 20.8978 15.3809 20.8467C15.468 20.8126 15.7223 20.6987 15.6358 20.7337C3.65871 25.5803 6.66727 24.4481 9.1109 23.3679C9.56239 23.1582 9.99524 22.922 10.4393 22.7018C10.9586 22.4322 11.4835 22.1704 12.0013 21.8988C12.0804 21.8519 12.1578 21.803 12.2386 21.7581C12.3128 21.7168 12.3919 21.682 12.466 21.6406C12.7645 21.4738 13.0481 21.2873 13.3298 21.1016C13.6907 20.8701 14.0403 20.6266 14.3847 20.3782C14.732 20.1698 15.1023 19.988 15.4621 19.7942C15.8469 19.5521 16.2296 19.3079 16.6055 19.0563C16.8325 18.9046 17.0796 18.7755 17.3141 18.633C17.4364 18.5586 17.5517 18.4764 17.6728 18.4008C18.026 18.1456 18.3682 17.8809 18.726 17.6302C19.033 17.4163 19.3424 17.2056 19.6579 17C19.7631 16.9426 19.8446 16.8615 19.9427 16.7971C20.0006 16.7591 20.0656 16.729 20.1234 16.6908C20.3228 16.5593 20.5076 16.4104 20.7053 16.2765C21.0826 16.0287 21.4484 15.7685 21.8469 15.5446C21.8973 15.5145 21.9424 15.477 21.998 15.4541C24.4994 14.4246 27.0091 13.4095 29.5153 12.3884C29.5665 12.3676 29.7215 12.3076 29.6704 12.3284C27.2564 13.3129 24.8427 14.2977 22.4271 15.2791C22.3864 15.2956 22.5045 15.2397 22.5452 15.2232C25.0578 14.2036 27.5728 13.1882 30.0864 12.1707C30.1143 12.1581 30.2675 12.0822 30.3087 12.0911C30.5746 12.1489 30.7599 12.4904 30.8299 12.6833C30.8559 12.7548 30.8602 12.8306 30.8754 12.9042C30.8783 12.9881 30.8888 13.0721 30.8842 13.1561C30.8794 13.2451 30.8615 13.3333 30.8472 13.4217C30.79 13.7746 30.6976 14.12 30.5986 14.466C30.498 14.7086 30.392 14.9537 30.2405 15.1783C30.0852 15.4084 29.881 15.6122 29.6774 15.8124C29.105 16.3678 28.4476 16.8551 27.7949 17.3427C27.1613 17.8231 26.5206 18.2967 25.8716 18.7625C25.3067 19.1743 24.7179 19.563 24.11 19.9294C23.409 20.3275 22.6736 20.6792 21.9479 21.0441C19.2314 22.4627 16.2155 23.4808 13.3526 24.6348C13.2131 24.6911 13.0653 24.7318 12.923 24.7829C12.7763 24.8356 12.6315 24.8917 12.4858 24.9461C12.7744 24.8228 11.3144 25.4222 11.6072 25.3032C13.8096 24.408 20.4103 21.7118 18.2132 22.6158C15.7373 23.6344 13.2535 24.6392 10.7712 25.6471C10.6423 25.6994 10.2513 25.8489 10.3801 25.7964C12.6423 24.8753 14.9074 23.9594 17.1712 23.0409C14.8456 22.4262 11.782 25.3615 9.10915 26.3152C8.80009 26.4255 8.48049 26.5111 8.16984 26.6184C7.88563 26.7312 7.59886 26.8372 7.31915 26.9577C7.2377 26.9928 6.99287 27.0972 7.07529 27.0637C13.5191 24.4468 16.4943 23.207 13.9367 24.2723C13.8789 24.2958 13.8211 24.3193 13.7633 24.3428C13.7112 24.3691 13.6614 24.3989 13.6071 24.4219C13.5578 24.4427 13.5031 24.4536 13.4534 24.4739C13.2867 24.5418 13.1267 24.6287 12.9648 24.7044C12.9164 24.729 12.8704 24.7572 12.8197 24.7782C12.7728 24.7977 12.7203 24.8064 12.6731 24.8253C12.5635 24.8692 12.5351 24.9041 12.4255 24.9497C12.1788 25.0523 12.4009 24.9224 12.1723 25.072C12.0849 25.1027 11.8499 25.2789 11.7566 25.25C11.7344 25.2432 11.7166 25.2259 11.7067 25.208C11.6571 25.1183 11.6222 25.0234 11.5799 24.9312C11.5707 24.9124 11.3606 24.6494 11.4564 24.5423C11.4803 24.5156 11.5249 24.5082 11.559 24.491C11.7294 24.4047 11.9081 24.3423 12.0891 24.2727C12.36 24.2172 12.6087 24.1137 12.8638 24.0238C13.151 23.9227 13.4458 23.8363 13.7342 23.7374C13.5293 23.8573 14.4512 23.4637 14.2738 23.5354C11.9105 24.49 9.54864 25.4467 7.18689 26.4039C7.09551 26.4409 7.37107 26.3323 7.46287 26.296C7.57437 26.2519 7.68589 26.2079 7.79677 26.1627C10.2943 25.1452 12.791 24.1263 15.2881 23.1081C15.6934 22.9909 16.0721 22.82 16.4764 22.7003C16.6548 22.6475 16.8389 22.6091 17.0199 22.5628C17.3032 22.5118 17.5702 22.4144 17.8481 22.3483C17.9386 22.3268 18.0322 22.3151 18.1225 22.2929C18.1256 22.2922 18.6294 22.1442 18.6324 22.1433C18.9677 22.0562 18.8269 22.1058 19.1379 21.9733C19.2197 21.9384 19.4653 21.8338 19.3826 21.8673C7.32039 26.7551 10.7338 25.4164 13.2408 24.3574C13.9431 24.0713 14.6033 23.7205 15.2735 23.3865C15.8315 23.1148 16.3628 22.8069 16.9174 22.531C19.6883 21.0594 22.7317 19.9947 25.7024 18.8307C16.9816 22.3815 15.5394 22.9669 26.2039 18.6319C26.3603 18.5683 26.5128 18.4978 26.672 18.4392C26.8188 18.3853 26.971 18.3423 27.1199 18.2923C27.53 18.1825 27.9101 18.0095 28.3195 17.8998C28.451 17.8812 28.6236 17.8185 28.7543 17.883C29.0133 18.011 29.1069 18.2665 29.1969 18.4868C29.2035 18.5588 29.2213 18.6306 29.2167 18.7028C29.2065 18.8615 29.1614 18.9069 29.0778 19.0406C28.9374 19.2653 28.7903 19.4196 28.6057 19.6201C28.0196 20.1474 27.3198 20.58 26.6265 21.0035C25.7636 21.5142 24.8614 21.9763 23.9412 22.4108C23.1128 22.7717 22.3154 23.1794 21.4878 23.541C19.0007 24.5513 16.5158 25.565 14.0265 26.5718C13.8851 26.629 13.7389 26.6777 13.5965 26.7332C13.4527 26.7892 13.0254 26.9643 13.168 26.9063C15.3854 26.0051 22.0419 23.3088 19.8208 24.2033C11.7563 27.4514 14.9336 26.325 11.9612 27.3723C11.0972 27.695 10.2038 27.9571 9.33316 28.2657C8.91853 28.4077 8.49617 28.5337 8.09097 28.6945C7.96021 28.7464 7.83446 28.8068 7.70379 28.8588C7.56951 28.9123 7.43218 28.9603 7.29637 29.011C7.1611 29.0651 7.02583 29.1192 6.89056 29.1734C19.0709 24.5223 14.5202 25.8862 12.0173 27.1719C11.9112 27.1647 11.8443 27.2961 11.738 27.3017C11.647 27.3065 11.4975 26.9305 11.497 26.9292C11.4852 26.8996 11.4872 26.8673 11.4823 26.8364C11.5092 26.8304 11.5352 26.8204 11.563 26.8185C11.7544 26.8059 11.9536 26.8409 12.145 26.8421C12.433 26.8439 12.4165 26.8348 12.7089 26.7931C13.4818 26.7001 14.2025 26.4626 14.9122 26.2021C17.5339 25.0973 14.8202 26.2429 8.78071 28.6876C8.62521 28.7505 9.08946 28.5579 9.24215 28.4903C9.689 28.2926 10.1196 28.0754 10.5483 27.8519C11.2947 27.4468 12.0385 27.0386 12.8003 26.6539C13.7051 26.2386 14.6053 25.8165 15.5025 25.3898C16.1432 25.0826 16.7817 24.7726 17.4353 24.4846C18.0331 24.2275 18.6266 23.964 19.2226 23.7037C21.9248 22.2553 24.518 21.4058 27.3015 20.4736C27.5941 20.3756 27.8069 20.3089 28.1156 20.2515C28.4398 20.1562 28.7723 20.0779 29.0882 19.9636C29.8448 19.6899 28.8182 20.0377 29.6041 19.7757C30.081 19.6324 30.5419 19.4563 31.0324 19.3482C31.2037 19.3235 31.3904 19.252 31.5516 19.3522C31.809 19.5122 31.8985 19.7667 31.9765 20.0109C31.984 20.0994 32.0045 20.1877 31.9991 20.2762C31.964 20.8465 31.4292 21.4963 31.0696 21.9575C30.3538 22.7993 29.4568 23.5164 28.5012 24.1653C27.7242 24.645 26.8995 25.0827 26.0301 25.4377C23.5539 26.4489 21.0725 27.451 18.5935 28.4576C17.5911 28.8252 16.554 29.1216 15.53 29.4437C14.9501 29.6604 14.3507 29.8399 13.7748 30.0638C13.1104 30.3221 13.7271 30.1044 13.0781 30.3255C12.376 30.5608 11.6768 30.8021 10.9722 31.0325C10.6782 31.1566 10.3718 31.2553 10.0759 31.3759C9.99927 31.4072 9.77009 31.5022 9.84682 31.4711C16.9559 28.59 19.3255 27.5518 16.842 28.6384C16.7958 28.6577 16.7497 28.6771 16.7036 28.6965C16.6605 28.712 16.6164 28.726 16.5742 28.7432C14.0629 29.7658 11.5528 30.7908 9.04293 31.8159C9.00046 31.8332 8.8745 31.8877 8.91699 31.8704C11.3496 30.8785 18.6512 27.9088 16.2133 28.8921C13.6951 29.9078 11.1882 30.9425 8.67547 31.9678C16.6441 28.7208 17.0564 31.0727 15.6068 28.153C15.5838 28.1066 15.5346 28.061 15.545 28.0116C15.5514 27.9816 15.6115 27.9862 15.6449 27.9737C15.7008 27.9528 15.7568 27.9321 15.8128 27.9114C18.3258 26.8212 15.6368 27.9895 9.08426 30.6543C8.95847 30.7055 9.33331 30.5477 9.45562 30.4909C9.87509 30.2963 10.2765 30.0765 10.6799 29.86C11.3264 29.5036 11.9881 29.1665 12.6689 28.8579C13.0933 28.6502 13.5316 28.4629 13.9572 28.2572C14.3673 28.0077 14.7936 27.7788 15.2408 27.579C17.8923 26.2891 15.544 27.4247 22.9894 24.3901C23.0734 24.3558 23.4616 24.2183 23.5429 24.1931C23.7497 24.129 23.9605 24.0741 24.1677 24.0108C24.2748 23.9779 24.3836 23.9487 24.4889 23.9121C24.5963 23.8747 24.6988 23.8281 24.8052 23.7889C24.9997 23.7173 25.2416 23.6429 25.4335 23.5653C25.5278 23.5271 25.8046 23.4028 25.7103 23.4409C23.3782 24.3844 21.0502 25.3346 18.7197 26.2814C19.1835 26.0907 19.6456 25.894 20.0758 25.6536C20.4276 25.4722 20.7671 25.2751 21.0912 25.0608C21.1261 25.0421 21.4701 24.8849 21.4724 24.8863C21.4975 24.9029 21.4831 24.9396 21.4958 24.9642C21.6419 25.247 21.7975 25.5263 21.9484 25.8073C21.9893 25.8578 21.5614 25.9914 21.6614 25.9504C23.9168 25.0255 26.1775 24.1096 28.4327 23.1846C28.6194 23.1081 28.0546 23.3295 27.8674 23.4052C19.7581 26.6881 22.953 25.4505 19.814 26.6627C17.4347 27.6158 13.5747 29.1706 24.4807 24.7598C24.6681 24.684 24.1096 24.9172 23.9246 24.997C23.7921 25.0541 23.1841 25.3211 23.0378 25.3853C20.5605 26.3912 18.0847 27.3998 15.6061 28.403C15.2075 28.5643 14.8018 28.7133 14.4032 28.8747C14.2791 28.9249 13.9058 29.0738 14.0297 29.0233C16.2904 28.1034 18.5521 27.1853 20.8134 26.2663C6.5968 32.0578 14.9613 28.6495 20.2171 26.5116C20.3067 26.4752 20.0384 26.585 19.9494 26.6224C19.8941 26.6456 19.8401 26.671 19.7842 26.6932C19.7424 26.7098 19.6946 26.7167 19.6565 26.7386C19.6025 26.7695 19.56 26.8125 19.5118 26.8494C19.2373 27.0902 18.8945 27.2621 18.5702 27.4504C18.1339 27.7037 18.5013 27.5023 18.0702 27.733C17.8032 27.8939 17.5139 28.0245 17.2323 28.1653C16.9095 28.3268 17.2337 28.1852 16.9501 28.3044L9.01768 30.3799C9.43304 30.1602 8.89967 30.4327 9.37115 30.2252C9.44366 30.1933 9.50897 30.1508 9.58082 30.1179C9.82262 30.007 10.0848 29.9265 10.3119 29.7929C10.4831 29.7035 10.6627 29.6257 10.8332 29.5354C10.921 29.4889 11.0014 29.4333 11.0872 29.3844C11.2796 29.2746 11.4812 29.1764 11.6708 29.0631C11.8718 28.9067 11.7726 28.9973 11.9601 28.7853C12.0718 28.6926 12.3484 28.5482 12.4827 28.493C14.9703 27.4708 17.4655 26.4617 19.9564 25.4453C22.2317 24.5169 15.4053 27.3011 13.1296 28.229C15.618 27.2173 18.1057 26.2041 20.595 25.194C20.9597 25.046 21.3323 24.9115 21.7019 24.7723C21.8316 24.7234 22.2184 24.5723 22.0906 24.6247C19.9044 25.5212 17.7143 26.4114 15.5266 27.3048C16.1067 27.0818 16.6784 26.8443 17.2524 26.6105C20.1818 25.4173 23.1107 24.2231 26.0382 23.0264C28.973 21.8061 25.7979 23.1284 20.393 25.3154C20.2519 25.3725 20.6695 25.1917 20.8103 25.134C23.3216 24.1041 25.8366 23.0801 28.3494 22.0526C28.4536 22.01 28.5537 21.9597 28.6615 21.9238C28.75 21.8943 28.8444 21.8794 28.9359 21.8572C29.1317 22.1268 29.3521 22.385 29.5234 22.6661C29.5449 22.7013 29.5232 22.7487 29.5001 22.7832C29.47 22.8282 29.3361 22.8577 29.293 22.8771C29.2512 22.8959 29.2137 22.9207 29.174 22.9425C29.1275 22.9615 29.081 22.9805 29.0345 22.9995C28.6093 23.1297 28.2539 23.3667 27.8815 23.5769C27.6572 23.692 27.4509 23.8239 27.2297 23.9429C26.8575 24.1431 27.1557 23.9839 26.7673 24.1639C26.6863 24.2015 26.6078 24.2426 26.528 24.2819C23.5084 25.5107 20.6236 26.8629 17.499 27.84C17.1868 27.9448 16.8849 28.0598 16.5829 28.1838C16.491 28.2215 16.2163 28.3359 16.3082 28.2983C23.5811 25.3247 25.6231 24.5124 23.0449 25.5391C22.6304 25.7508 22.1832 25.9149 21.7842 26.1494C21.6324 26.2525 21.5614 26.306 21.397 26.3956C21.0789 26.5689 20.7283 26.699 20.3956 26.8504C20.0608 27.0059 19.7156 27.1416 19.3785 27.2932C19.1073 27.4152 18.8842 27.5273 18.6181 27.6577C18.4845 27.7232 18.351 27.7887 18.2174 27.8541C18.0193 27.9606 17.641 28.162 17.4438 28.2757C17.42 28.2895 16.8835 28.6176 16.8287 28.6406C14.3346 29.6847 11.8274 30.7064 9.32454 31.7358C9.23563 31.7724 9.14406 31.8043 9.05382 31.8385C8.97188 31.8694 8.89046 31.9013 8.80802 31.9312C8.7427 31.955 8.68169 32.0033 8.6106 31.9996C8.52963 31.9953 8.43528 31.967 8.39242 31.9094C8.20599 31.6592 8.07029 31.3835 7.94615 31.1076C7.93528 31.0834 7.98511 31.0675 8.00458 31.0474C10.5131 30.0227 13.0219 28.998 15.5305 27.9733C13.0972 28.9676 5.82222 31.9919 8.23047 30.9562C10.7154 29.8875 13.2494 28.9004 15.7601 27.8746C18.1429 26.901 10.9996 29.8301 8.61436 30.7997C8.51434 30.8404 9.00856 30.6021 8.90753 30.6666C11.817 29.5391 14.5889 28.1545 17.5983 27.2219C18.3054 26.9877 19.0057 26.7394 19.7066 26.4925C20.4675 26.2119 21.2525 25.9774 22.0267 25.7241C23.0239 25.4215 24.0259 25.1251 24.9815 24.7369C22.8471 25.6099 20.7134 26.4841 18.5784 27.3559C18.4076 27.4256 18.9184 27.2139 19.0885 27.143C19.786 26.8521 20.476 26.5453 21.1244 26.1821C22.073 25.6226 22.9845 24.9998 23.6839 24.2178C23.8988 23.9363 24.1176 23.6581 24.2677 23.3468C24.2998 23.2801 24.3217 23.2103 24.3495 23.1422C24.3717 23.0877 24.406 23.0078 24.4315 22.9484C24.426 22.9368 24.4116 22.9012 24.4151 22.9134C24.4245 22.9462 24.4788 23.0764 24.4754 23.106C24.468 23.1698 24.3555 23.1796 24.3121 23.1921C24.2669 23.2051 24.2221 23.2187 24.1771 23.232C23.7499 23.3666 23.3199 23.4952 22.8986 23.6426C22.3861 23.8202 21.8558 23.9598 21.3242 24.092C18.5847 25.0136 14.6936 26.6189 26.9476 21.7276C26.3445 21.9625 25.7618 22.2298 25.177 22.4942C24.4575 22.793 23.7393 23.0935 23.0408 23.4258C22.1549 23.8345 21.27 24.2447 20.3944 24.6687C19.5886 25.0331 18.8238 25.4547 18.0458 25.8583C18.0177 25.8737 17.2185 26.3114 17.1908 26.3259C17.0464 26.4013 16.4572 26.6931 16.3032 26.7566C9.20314 29.6814 11.362 28.8999 8.38064 29.9685C8.01767 30.0831 7.87702 30.1353 7.50819 30.2219C6.98465 30.345 6.44478 30.414 5.90647 30.4724C5.48415 30.4813 4.81764 30.5089 4.41556 30.3968C4.34233 30.3763 4.27552 30.3424 4.20549 30.3152C4.13438 30.2571 4.04889 30.2091 3.99216 30.1408C3.84617 29.965 3.63998 29.6469 3.82553 29.4283C3.88935 29.3531 4.14803 29.2422 4.22703 29.2044C4.54725 29.0638 4.85803 28.9103 5.17695 28.7678C7.87149 27.5634 10.6563 26.497 13.3991 25.3791C14.2129 25.0656 15.0309 24.7633 15.8703 24.4998C16.7551 24.2178 17.6284 23.9128 18.4894 23.5829C18.6271 23.529 19.0394 23.3652 18.9027 23.4211C16.6752 24.3322 9.97704 27.0383 12.217 26.1485C14.7101 25.1581 17.1796 24.1265 19.6627 23.1192C19.8007 23.0632 19.942 23.013 20.081 22.9588C20.2294 22.901 20.672 22.7233 20.525 22.7835C18.3194 23.6852 16.1117 24.5837 13.9055 25.4838C14.1541 25.3857 14.4782 25.2606 14.7209 25.1534C15.3033 24.8961 15.8588 24.5971 16.4473 24.349C17.3697 23.965 18.2545 23.5248 19.1046 23.0377C19.3382 22.9039 19.6089 22.7532 19.8336 22.6075C20.1977 22.3714 20.5419 22.1125 20.8968 21.8672C21.1939 21.6364 20.9666 21.8293 21.2015 21.5878C21.2363 21.5521 21.28 21.5225 21.312 21.485C21.3475 21.4434 21.3654 21.3455 21.4566 21.3442C21.4824 21.3438 21.5021 21.3646 21.5249 21.3748C21.5847 21.455 21.7266 21.6124 21.7095 21.7093C21.6967 21.7815 21.5066 21.7927 21.4583 21.8304C21.0912 21.9643 20.7089 22.0668 20.3461 22.2098C20.1384 22.2869 19.9364 22.3725 19.73 22.452C19.651 22.4824 19.4146 22.5747 19.4928 22.5428C19.6529 22.4774 38.8505 14.651 19.0123 22.7389C16.5802 23.7322 14.7184 24.4927 25.7347 19.9818C25.8236 19.9454 25.5579 20.0565 25.4699 20.0944C25.1893 20.2154 24.9158 20.3458 24.6525 20.4918C23.6928 20.9864 25.0748 20.2791 24.1086 20.7572C23.7219 20.9486 23.3639 21.179 22.9668 21.3565C22.2774 21.7142 21.5641 22.0393 20.8745 22.3966C20.7569 22.447 20.6383 22.4957 20.5218 22.5477C20.4172 22.5945 20.3178 22.6494 20.2113 22.693C17.7104 23.7167 15.2076 24.737 12.7001 25.7494C12.6036 25.7884 12.5017 25.818 12.4002 25.8469C12.2259 25.8964 12.0416 25.9194 11.8727 25.9835C11.3406 26.1183 10.8041 26.2425 10.2809 26.4011C9.73799 26.5714 9.20363 26.765 8.6808 26.9739C10.9656 26.0422 13.2488 25.1077 15.5352 24.1788C15.6248 24.1424 15.3594 24.257 15.2716 24.2962C15.1974 24.3294 15.1248 24.3652 15.0491 24.396C12.5464 25.4126 10.0446 26.4312 7.53636 27.4383C7.38382 27.4996 7.20476 27.5066 7.05998 27.5851C6.48793 27.7757 5.91733 27.9703 5.35141 28.1727C5.1105 28.2531 4.48641 28.4996 4.24583 28.3149C4.12777 28.2243 4.0494 28.1031 3.95119 27.9972C3.89666 27.8807 3.8234 27.7691 3.7876 27.6475C3.72479 27.4344 4.05943 27.2738 4.22975 27.1818C4.53614 27.0551 4.18447 27.2157 4.47236 27.0308C4.5545 26.978 4.65791 26.9526 4.74351 26.9039C4.79295 26.8757 4.83291 26.8363 4.88475 26.8113C4.93704 26.7861 4.99678 26.7737 5.05279 26.7549C5.21293 26.6858 5.38259 26.6214 5.53485 26.5404C5.58894 26.5117 5.63452 26.472 5.69084 26.4465C5.74958 26.4198 5.81521 26.4054 5.87739 26.3849C5.94208 26.3536 6.00677 26.3222 6.07147 26.2909C8.95881 25.0661 11.8224 23.7836 14.8314 22.7803C17.6097 21.8609 21.5982 19.5694 9.47461 25.0076C11.9588 23.9991 14.4425 22.9898 16.9273 21.9821C17.0507 21.9321 17.4219 21.784 17.2987 21.8344C15.0793 22.7411 8.4088 25.4398 10.6389 24.5513C13.13 23.5586 15.6002 22.5299 18.0825 21.522C18.3138 21.4281 18.7383 21.269 18.9698 21.1813C21.4768 20.2433 24.8783 18.7714 13.2135 23.5484C13.084 23.6015 13.4771 23.4505 13.6076 23.3991C14.0591 23.2211 13.9381 23.2695 14.3661 23.0476C14.6097 22.9208 14.8516 22.7919 15.0968 22.6672C15.4393 22.4931 15.793 22.3332 16.1328 22.1555C16.2407 22.0991 16.3449 22.0377 16.4509 21.9788C17.0917 21.655 17.6779 21.2687 18.2676 20.8841C18.9393 20.4028 19.6412 19.9516 20.2955 19.453C20.8865 19.0017 21.4967 18.5628 22.0246 18.0585C22.1496 17.9366 22.2841 17.8217 22.4083 17.6992C22.4675 17.6408 22.517 17.5757 22.5757 17.517C22.6304 17.4623 22.6981 17.4167 22.7484 17.3591C22.7951 17.3056 22.9732 17.0281 23.0125 16.9679C23.212 16.5964 23.3405 16.2057 23.3229 15.7946C23.3144 15.7759 23.294 15.7188 23.2974 15.7386C23.3128 15.8297 23.4586 15.9974 23.4141 16.0781C23.4021 16.0999 23.2317 16.1479 23.2174 16.1523C25.6526 15.1634 28.0891 14.1764 30.5228 13.1855C30.5684 13.167 30.4285 13.2165 30.383 13.2351C27.8736 14.2566 25.3665 15.282 22.8583 16.3055C20.4207 17.3002 17.2168 18.6541 29.9188 13.4249C29.9769 13.401 29.7956 13.458 29.734 13.4746C28.9851 13.7973 30.1533 13.2923 29.3463 13.6469C29.2731 13.6791 29.1959 13.7051 29.1249 13.7406C28.895 13.8556 28.7018 14.0139 28.475 14.1326C28.2985 14.2505 28.1068 14.3627 27.9465 14.4963C27.8975 14.5371 27.8602 14.5873 27.8094 14.6264C27.7145 14.6993 27.587 14.7392 27.5069 14.8276C27.4565 14.864 27.406 14.9003 27.3556 14.9366C27.3034 14.9699 27.2493 15.0014 27.1989 15.0366C27.1462 15.0735 27.1007 15.1174 27.0464 15.1527C26.9945 15.1865 26.933 15.209 26.8814 15.2431C26.3594 15.5874 27.0996 15.1472 26.5482 15.4674C26.4984 15.5004 26.2344 15.6761 26.1843 15.7075C26.1236 15.7454 26.0572 15.777 25.9991 15.8176C25.8186 15.9439 25.6763 16.1085 25.4708 16.2109C25.1683 16.4804 24.8232 16.7112 24.4573 16.9186C24.0482 17.1545 23.6535 17.4043 23.2593 17.6576C22.9543 17.8908 22.62 18.1093 22.2502 18.2652C22.0202 18.3651 21.9124 18.4466 21.7073 18.5728C21.6417 18.6132 21.5693 18.6459 21.5049 18.6876C21.3693 18.7754 21.2552 18.8849 21.1129 18.966C20.8194 19.1542 20.5239 19.3416 20.2335 19.533C20.1573 19.5832 20.0896 19.6424 20.0103 19.689C19.9335 19.7342 19.8479 19.768 19.7666 19.8075C19.6143 19.9041 19.4505 20.0125 19.2881 20.0974C19.2017 20.1426 19.1093 20.1792 19.0219 20.2231C18.7476 20.3611 18.4779 20.5059 18.202 20.6419C17.7793 20.8807 17.343 21.1025 16.9129 21.3321C14.1299 22.7375 11.1801 23.9325 8.13207 24.8792C7.52275 25.0746 6.91536 25.2751 6.29962 25.4559C5.72526 25.6148 5.14182 25.7526 4.54587 25.8429C4.44719 25.8547 4.34911 25.8708 4.24983 25.8784C3.86633 25.9078 3.47774 25.8781 3.09352 25.8964C2.74054 25.8978 2.38775 25.9082 2.03472 25.9056C1.92682 25.8976 1.74759 25.8966 1.66029 25.8312C1.40432 25.6393 1.2542 25.3658 1.2179 25.0833C1.36068 24.9138 1.17342 25.1149 1.3474 24.9896C1.3747 24.97 1.38555 24.9372 1.4134 24.9181C1.43785 24.9013 1.47434 24.9009 1.49972 24.8851C1.55389 24.8514 1.58148 24.7933 1.63835 24.7617C1.66239 24.7447 1.68458 24.7257 1.71046 24.7107C1.7361 24.6958 1.76878 24.6897 1.79219 24.6724C1.8942 24.5972 1.83339 24.5898 1.95474 24.5253C1.99031 24.5064 2.03317 24.4994 2.07239 24.4864C4.58169 23.4612 7.09091 22.4361 9.60038 21.4108C-6.52991 27.9866 6.49603 22.6724 9.86418 21.3157C9.91214 21.2963 9.96731 21.293 10.0174 21.2781C10.2192 21.2178 10.4103 21.1318 10.6198 21.089C11.1474 20.9348 11.6692 20.7699 12.1761 20.5726C12.5013 20.4584 12.3724 20.5091 12.6797 20.3802C12.7536 20.3491 12.9754 20.256 12.901 20.2863C0.777901 25.2174 3.67825 23.9866 6.20582 23.0229C6.83502 22.7342 5.99338 23.1157 6.60422 22.8534C6.84204 22.7513 7.0623 22.6218 7.3074 22.5307C7.36058 22.5069 7.41376 22.4831 7.46694 22.4593C7.52247 22.4405 7.5806 22.4263 7.63353 22.4029C8.01682 22.2332 7.57077 22.3928 7.95976 22.2334C10.6896 21.1145 24.8731 15.3373 8.2884 22.0945C8.34513 22.0781 8.40392 22.0659 8.45858 22.0452C8.54718 22.0115 8.67331 21.936 8.75802 21.8956C8.80844 21.8716 8.86283 21.8535 8.91248 21.8283C9.24761 21.6587 8.87494 21.8148 9.23913 21.6718C9.36045 21.6115 9.45824 21.5592 9.58661 21.5102C9.64372 21.4884 9.70576 21.4761 9.76173 21.4523C9.81763 21.4286 9.86513 21.3926 9.92075 21.3684C10.2763 21.2139 9.90493 21.4162 10.2296 21.2283C10.5255 21.0645 10.8393 20.9223 11.111 20.7291C11.2685 20.6466 11.4136 20.5522 11.5618 20.4586C11.6105 20.4279 11.6518 20.389 11.7034 20.3619C11.7501 20.3374 11.8058 20.3273 11.8541 20.3052C11.9028 20.2829 11.947 20.2545 11.9935 20.2292C12.1317 20.1666 12.2548 20.0979 12.3852 20.0256C12.4219 20.0053 12.4667 19.9947 12.4989 19.9697C12.5339 19.9425 12.5546 19.9048 12.5824 19.8724C12.6146 19.8495 12.6469 19.8267 12.6791 19.8039C12.7127 19.7678 12.8466 19.6214 12.8826 19.5951C12.9233 19.5652 12.9753 19.5481 13.02 19.5225C13.163 19.4406 13.3041 19.3554 13.4412 19.2668C13.7116 19.1038 13.9993 18.9632 14.2703 18.8011C14.5929 18.6287 14.8847 18.4211 15.2085 18.251C15.4096 18.1357 15.5981 18.007 15.7978 17.8904C15.8453 17.8626 15.9011 17.8448 15.9455 17.8137C15.9952 17.7789 16.0335 17.7343 16.0775 17.6946C16.2694 17.5703 16.4664 17.4548 16.6642 17.3376C16.7152 17.3074 16.7598 17.2694 16.814 17.2434C16.8664 17.2183 16.9257 17.2049 16.9815 17.1856C17.0315 17.157 17.0815 17.1284 17.1315 17.0998C17.1838 17.0788 17.2397 17.0631 17.2885 17.0368C17.3381 17.01 17.3772 16.9713 17.4244 16.9416C17.5612 16.8557 17.7068 16.7788 17.8394 16.6877C18.1769 16.5411 17.7948 16.7212 18.1153 16.5217C18.2937 16.4108 18.5189 16.3589 18.6853 16.2333C18.8286 16.1535 18.9808 16.0861 19.1223 16.0042C19.1687 15.9774 19.2104 15.9449 19.258 15.9195C19.6786 15.6952 19.1355 16.0179 19.552 15.7641C19.9624 15.5386 19.404 15.8532 19.8203 15.5914C20.0199 15.466 20.2463 15.369 20.4363 15.232C20.4874 15.2008 20.5384 15.1696 20.5895 15.1384C20.6402 15.115 20.6937 15.0955 20.7416 15.0682C20.7905 15.0404 20.8286 15.0003 20.8786 14.9739C20.9257 14.949 20.9833 14.9404 21.0304 14.9156C21.1206 14.8682 21.1835 14.789 21.2858 14.755C21.3623 14.6989 21.4466 14.6497 21.5173 14.5885C21.552 14.5584 21.5751 14.5198 21.6101 14.4898C21.6389 14.4652 21.6788 14.4507 21.7074 14.4258C21.7364 14.4006 21.7516 14.3656 21.7814 14.3411C21.8049 14.3217 21.8369 14.3113 21.8646 14.2965C22.069 14.0622 21.8007 14.3468 22.0075 14.1869C22.0322 14.1678 22.0397 14.1363 22.0647 14.1174C22.0845 14.1024 22.1185 14.1047 22.1373 14.0888C22.162 14.0679 22.1673 14.0351 22.1892 14.0121C22.2094 13.991 22.2378 13.9763 22.2621 13.9584C22.3785 13.754 22.2449 13.9485 22.4108 13.8029C22.4667 13.7539 22.5392 13.6373 22.5812 13.5854C22.615 13.5437 22.6532 13.5047 22.6891 13.4643C22.727 13.4161 22.7648 13.368 22.8027 13.3198C22.8957 13.2124 22.9628 13.142 23.0393 13.0253C23.1477 12.8598 23.2175 12.678 23.3399 12.5184C23.3758 12.3509 23.4065 12.2144 23.3436 12.0471C23.3356 12.0265 23.1504 11.603 23.2333 11.8571C23.2407 11.8851 23.2467 11.9134 23.2557 11.9411C23.2664 11.9741 23.299 12.0052 23.2924 12.039C23.2891 12.0558 23.2537 12.0501 23.2336 12.0531C23.1353 12.0676 23.0376 12.0813 22.9414 12.1069C22.7676 12.1328 22.7364 12.1624 22.5849 12.2244C22.3459 12.3223 22.5995 12.2092 22.3318 12.3066C22.2853 12.3236 22.2418 12.3459 22.1968 12.3656C22.0924 12.4004 21.7896 12.5252 21.8907 12.484C24.278 11.5115 26.6665 10.5412 29.0504 9.5628C29.1081 9.53913 28.9281 9.59658 28.87 9.61952C28.8159 9.64089 28.7667 9.67002 28.715 9.69527C28.6658 9.71468 28.6166 9.7341 28.5674 9.75351C28.5219 9.77082 28.474 9.78426 28.4309 9.80542C28.2268 9.90565 28.0614 10.0616 27.8347 10.1277C27.6038 10.3192 27.8457 10.1302 27.5916 10.2949C27.3891 10.4262 27.1991 10.5767 27.0219 10.7306C26.963 10.7729 26.9011 10.8125 26.8452 10.8575C26.7219 10.9569 26.6176 11.0719 26.4943 11.1712C26.2874 11.338 26.05 11.4782 25.8541 11.6551C25.3972 11.9776 24.9344 12.2956 24.5144 12.6525C24.2277 12.8559 23.9156 13.031 23.5924 13.1915C23.5069 13.2439 23.3703 13.33 23.2796 13.3753C23.2217 13.4042 23.1586 13.4253 23.1007 13.4542C22.9198 13.5444 22.7532 13.6551 22.6024 13.7777C22.4627 13.8785 22.3398 13.9871 22.219 14.1038C22.1838 14.1379 22.158 14.1791 22.1181 14.2094C22.0538 14.2583 21.956 14.2699 21.9018 14.3314C21.6716 14.4476 21.9198 14.3175 21.6928 14.4521C21.6558 14.474 21.6135 14.4897 21.5785 14.5138C21.539 14.5409 21.5122 14.5799 21.4708 14.6049C21.3885 14.6546 21.2738 14.6605 21.2093 14.7351C20.7887 14.9467 21.3673 14.652 20.9552 14.8735C20.8418 14.9344 20.8267 14.9268 20.7228 14.9965C20.6875 15.0202 20.6625 15.0547 20.6233 15.0736C20.5871 15.091 20.543 15.0927 20.5028 15.1023C20.4122 15.1669 20.3833 15.1902 20.2858 15.2493C20.2451 15.2739 20.1998 15.2934 20.1614 15.3205C20.1191 15.3503 20.0881 15.3905 20.0448 15.4193C20.0035 15.4468 19.9546 15.4653 19.9095 15.4883C19.8697 15.5172 19.8299 15.5462 19.7901 15.5752C19.6676 15.6478 19.5461 15.7296 19.446 15.8241C19.4079 15.86 19.3843 15.9062 19.3422 15.9388C19.2703 15.9947 19.1595 16.0077 19.0971 16.0755C19.0581 16.0955 19.0191 16.1155 18.98 16.1355C18.9452 16.1584 18.9125 16.1837 18.8756 16.2041C18.8385 16.2246 18.795 16.2363 18.7586 16.2578C18.6358 16.3304 18.5374 16.4328 18.4098 16.501C18.1546 16.6589 17.9579 16.8751 17.7834 17.095C17.7134 17.1655 17.6519 17.2417 17.5811 17.3117C17.4652 17.4264 17.3163 17.5166 17.1901 17.6228C17.1236 17.7194 17.0451 17.7921 16.9639 17.8797C16.9376 17.9079 16.9188 17.9415 16.8872 17.9657C16.8581 17.988 16.8194 17.9995 16.7854 18.0164C16.7529 18.0444 16.7204 18.0724 16.6879 18.1004C16.5666 18.1612 16.4416 18.2329 16.3371 18.313C16.1977 18.4199 16.1008 18.5634 15.929 18.6407C15.7106 18.7705 15.8188 18.7021 15.6049 18.8464C15.4179 18.9597 15.2108 19.0409 15.0136 19.1394C14.9452 19.1736 14.8804 19.2126 14.8139 19.2492C14.5682 19.3592 14.6311 19.325 14.3937 19.4564C14.209 19.5588 14.1418 19.6096 13.9407 19.6919C6.7917 22.6203 8.96419 21.805 6.18398 22.8448C5.65271 22.9904 5.10872 23.1138 4.54404 23.101C4.03302 23.097 3.52195 23.104 3.01092 23.1001C2.67493 23.0943 2.22166 23.1296 1.9592 22.9129C1.8894 22.8553 1.84066 22.7823 1.78139 22.7169C1.64934 22.4746 1.54064 22.2534 1.76066 22.0239C1.87505 21.7323 2.07544 21.4914 2.32189 21.2653C2.53274 21.0215 2.75647 20.7821 3.03741 20.5913C3.18152 20.4923 3.30125 20.368 3.44804 20.2729C3.63369 20.1527 3.86131 20.0841 4.05535 19.9751C4.56576 19.7523 5.07169 19.5231 5.57926 19.296C5.82096 19.201 6.05149 19.0923 6.29001 18.9925C6.44734 18.9266 6.60413 18.8738 6.76133 18.8077C6.83808 18.7754 6.91265 18.7396 6.98831 18.7056C7.19444 18.5963 7.40437 18.4976 7.62397 18.408C10.126 17.3872 12.638 16.3834 15.133 15.3502C17.4836 14.3766 10.414 17.2668 8.05682 18.2289C7.98499 18.2582 8.20327 18.1753 8.2765 18.1485C8.72326 17.9615 9.16911 17.7723 9.60192 17.5634L9.81594 17.4561C9.89023 17.4263 9.96697 17.4004 10.0388 17.3666C10.1121 17.3322 10.1782 17.2878 10.2505 17.2518C10.3191 17.2178 10.3942 17.1931 10.4611 17.1568C10.5958 17.0837 10.7059 16.9811 10.8525 16.9218C10.9726 16.8665 11.1287 16.796 11.2464 16.736C11.6927 16.5082 11.1659 16.7698 11.6131 16.5287C11.6763 16.4946 11.7464 16.4697 11.8078 16.4334C11.8718 16.3956 11.9279 16.3492 11.9879 16.3071C12.0583 16.2752 12.3089 16.1631 12.3771 16.1265C12.6231 15.9944 12.8572 15.8415 13.1301 15.7475C13.5219 15.5533 13.8783 15.3115 14.2901 15.1468C14.4348 15.0761 14.5748 14.9988 14.7218 14.9315C15.0395 14.7861 15.3752 14.6675 15.6829 14.5059C15.8357 14.4247 15.9806 14.3332 16.1348 14.2539C16.3851 14.1252 16.6574 14.0226 16.9131 13.9017C17.2168 13.7759 17.4698 13.5867 17.769 13.454C17.8186 13.4294 17.8682 13.4048 17.9179 13.3802C17.9676 13.3606 18.0193 13.3443 18.0669 13.3215C18.1157 13.2982 18.1589 13.2673 18.2064 13.2422C18.3486 13.167 18.5002 13.103 18.6258 13.0073C18.7349 12.9432 18.7873 12.9092 18.9013 12.854C18.9452 12.8327 18.9932 12.8174 19.0357 12.7942C19.0777 12.7712 19.1113 12.7386 19.1536 12.716C19.2291 12.6758 19.3204 12.6591 19.3932 12.6143C19.7049 12.3886 19.2893 12.6781 19.6029 12.494C19.6371 12.4739 19.6611 12.4434 19.6951 12.4232C19.8048 12.3582 19.9466 12.3568 20.0473 12.278C20.2457 12.1865 20.3209 12.1169 20.4842 11.9874C20.6809 11.8315 20.8808 11.6798 21.0468 11.4986C21.4 11.1364 21.7177 10.7531 22.0654 10.3878C22.15 10.307 22.2285 10.2217 22.3171 10.1439C22.3501 10.1149 22.5383 9.97601 22.5703 9.94507C22.6525 9.86564 22.7057 9.76701 22.7976 9.69369C23.0785 9.33114 23.3246 8.94451 23.4556 8.52436C23.5532 8.23447 23.4836 8.47343 23.5387 8.18624C23.5563 8.09462 23.5906 8.01056 23.5644 7.91732C23.6339 8.07107 23.5274 7.98834 23.4575 8.09777C23.3495 8.17635 23.4503 8.11019 23.2992 8.1826C23.2644 8.1993 23.1616 8.25163 23.1978 8.237C25.6385 7.24891 28.0752 6.25361 30.5135 5.26192C30.3566 5.29691 30.4283 5.26664 30.2996 5.35455C30.2657 5.37292 30.2337 5.39411 30.1978 5.40966C30.1686 5.42231 30.009 5.4687 29.9815 5.48112C29.9432 5.49837 29.9113 5.52417 29.874 5.54282C29.6413 5.65913 29.8618 5.52315 29.6345 5.67384C29.5095 5.74577 29.379 5.81489 29.2458 5.87592C29.1998 5.89696 29.1476 5.90842 29.1043 5.93307C29.0564 5.96033 29.023 6.00306 28.975 6.03012C28.9284 6.05638 28.8738 6.071 28.8231 6.09144C28.7696 6.10665 28.7137 6.11715 28.6624 6.13707C28.4113 6.23448 28.2368 6.4241 27.991 6.52628C27.9066 6.57069 27.8316 6.6273 27.7444 6.66765C27.5605 6.75279 27.6607 6.65774 27.4943 6.7737C27.4561 6.80033 27.431 6.83886 27.3911 6.86377C27.3576 6.88474 27.3156 6.894 27.2778 6.90912C27.2206 6.95557 27.1234 7.03832 27.0579 7.07471C27.0135 7.09932 26.9612 7.11256 26.9159 7.13589C26.8128 7.18894 26.7417 7.24543 26.6502 7.31117C26.6041 7.33591 26.5503 7.34886 26.5003 7.3677C26.1644 7.49964 25.9491 7.68526 25.6384 7.84443C25.487 7.93226 25.327 8.00945 25.1795 8.10192C25.1275 8.13453 25.0821 8.17461 25.0272 8.20383C24.9207 8.26062 24.7929 8.28574 24.6886 8.34616C24.3977 8.54771 24.0907 8.73004 23.7612 8.8854C23.4819 9.053 23.1913 9.207 22.9209 9.38439C22.7844 9.45251 22.6615 9.53231 22.5332 9.61051C22.4957 9.6334 22.4644 9.66319 22.4253 9.68423C22.3886 9.70404 22.3444 9.7128 22.3074 9.73223C22.2698 9.75191 22.2377 9.778 22.2028 9.80089C21.9801 10.0003 22.2403 9.79197 21.9864 9.92657C21.9426 9.94976 21.9123 9.98776 21.8698 10.0125C21.7316 10.0927 21.563 10.1219 21.4112 10.1774C20.7449 10.458 21.7356 10.0346 21.0751 10.3379C21.0205 10.363 20.9597 10.3779 20.9052 10.4032C20.7297 10.4848 20.5954 10.6069 20.4311 10.7014C20.3386 10.7733 20.2389 10.8387 20.1491 10.9129C19.9901 11.0445 19.8484 11.199 19.6462 11.2872C19.6079 11.3248 19.5736 11.3656 19.5312 11.4001C19.3348 11.5598 19.0659 11.6289 18.8807 11.7989C18.8416 11.8233 18.8025 11.8477 18.7634 11.8721C18.7248 11.8925 18.6848 11.9109 18.6478 11.9332C18.5921 11.9668 18.511 12.0345 18.4474 12.0619C18.4149 12.0759 18.3781 12.0811 18.3434 12.0907C18.314 12.1045 18.2846 12.1183 18.2552 12.1321C18.183 12.1988 18.1142 12.2653 18.0542 12.3402C18.0313 12.3688 18.0146 12.4011 17.9882 12.4275C17.967 12.4487 17.8443 12.5306 17.8193 12.5476C17.5988 12.6852 17.8561 12.5125 17.6447 12.6997C17.6132 12.7277 17.5699 12.745 17.5378 12.7725C17.4981 12.8064 17.4693 12.8484 17.4304 12.883C17.4127 12.8987 17.1849 13.0706 17.1687 13.0829C17.0319 13.1859 16.8851 13.2723 16.7433 13.3696C16.5883 13.476 16.445 13.5952 16.2765 13.688C15.9509 13.8888 15.6551 14.1167 15.3614 14.3488C15.0941 14.5177 15.3866 14.3142 15.1569 14.5406C15.0597 14.6364 15.0312 14.6151 14.9069 14.6771C14.8629 14.6991 14.8233 14.7268 14.7814 14.7517C14.7424 14.771 14.7034 14.7903 14.6644 14.8096C14.5577 14.853 14.5339 14.8541 14.447 14.9238C14.4141 14.9501 14.3936 14.9869 14.3573 15.0098C14.3247 15.0304 14.2804 15.0339 14.2452 15.0511C14.1669 15.0894 14.1074 15.1432 14.0425 15.1949C11.7388 16.6971 13.2208 15.7418 6.39929 18.3305C3.96393 19.2547 16.0002 14.3858 13.6113 15.3909C11.1228 16.438 8.59976 17.4266 6.10099 18.4561C3.79861 19.4047 15.9459 14.5279 13.0176 15.6267C10.3852 16.7723 7.82334 17.7633 5.04149 18.8902C4.94598 18.9289 4.60954 19.0357 4.50541 19.0646C4.42589 19.0867 4.3446 19.104 4.26419 19.1237C4.10358 19.163 3.99675 19.192 3.83381 19.2205C3.68224 19.247 3.59031 19.252 3.43825 19.2737C3.3771 19.2824 3.31726 19.2982 3.25551 19.3031C3.19618 19.3079 3.1363 19.3029 3.0767 19.3027C2.74307 19.2644 2.48713 19.2965 2.24465 19.0604C2.01663 18.7723 1.8881 18.5342 2.07305 18.2032C2.24635 17.9475 2.48241 17.7205 2.7341 17.5167C2.95223 17.2841 3.21875 17.0887 3.45073 16.8658C3.48399 16.8348 3.51223 16.7995 3.55052 16.7728C3.68659 16.6781 3.62634 16.7694 3.74526 16.6665C3.77255 16.6429 3.78456 16.6083 3.81388 16.5864C4.13061 16.3503 3.66648 16.7723 3.97262 16.4829C4.03592 16.4203 4.15845 16.262 4.24083 16.2267C4.26858 16.2148 4.30666 16.2291 4.3335 16.2158C4.36556 16.1999 4.38194 16.1684 4.40616 16.1448C4.564 16.0887 4.44458 16.1409 4.58593 16.0491C4.80592 15.9062 4.54437 16.0835 4.78051 15.957C4.85169 15.9189 4.90162 15.8563 4.98262 15.829C5.24537 15.7133 5.46114 15.5294 5.72682 15.4143C5.9634 15.2383 6.25122 15.1198 6.53109 14.9988C6.74521 14.9117 6.95406 14.8062 7.15568 14.6998C7.20477 14.6739 7.24948 14.642 7.3007 14.6191C7.34938 14.5974 7.40284 14.5842 7.45391 14.5667C7.4989 14.5387 7.54105 14.5073 7.58887 14.4828C7.68444 14.434 7.79304 14.4047 7.88907 14.3564C8.04409 14.2785 8.18406 14.178 8.35274 14.1187C8.90483 13.7912 8.12371 14.2374 8.67391 13.9761C8.72543 13.9516 8.76371 13.9113 8.81179 13.8824C8.95315 13.7974 9.10591 13.7237 9.24855 13.64C9.51309 13.4767 9.7904 13.3399 10.0858 13.2193C10.5044 12.942 9.92749 13.3158 10.3561 13.0647C10.4008 13.0386 10.4378 13.0041 10.482 12.9773C10.6061 12.902 10.7409 12.837 10.8653 12.7616C10.9207 12.7248 11.0527 12.6346 11.1144 12.6036C11.159 12.5812 11.2098 12.5682 11.2546 12.5461C11.4064 12.4714 11.5262 12.363 11.6665 12.2756C11.8573 12.1507 11.7661 12.2176 11.9401 12.0744C11.9821 12.046 12.0351 12.0302 12.0762 12.0009C12.1195 11.9701 12.1487 11.9272 12.1914 11.8958C12.2607 11.845 12.3587 11.8048 12.4391 11.7681C12.7601 11.4863 12.3218 11.8487 12.6519 11.6409C12.69 11.6169 12.7085 11.5755 12.7458 11.5508C12.7807 11.5277 12.8274 11.5202 12.8646 11.4998C12.9456 11.4554 13.0083 11.3898 13.097 11.354C13.1783 11.3159 13.2553 11.2716 13.3367 11.2335C13.3768 11.2148 13.4244 11.2067 13.461 11.1835C13.5023 11.1574 13.5256 11.1149 13.5662 11.0882C13.6363 11.0422 13.7477 11.0145 13.8291 10.9898C14.0644 10.837 14.3192 10.7098 14.5817 10.5926C14.6157 10.5718 14.6524 10.5537 14.6837 10.53C14.7053 10.5137 14.8548 10.3707 14.8757 10.3575C14.9141 10.3332 14.9635 10.3237 15.004 10.3018C15.1016 10.2491 15.1808 10.1745 15.2845 10.1286C15.6047 9.87926 15.2562 10.1382 15.6072 9.91523C15.8235 9.77785 16.0228 9.62038 16.2422 9.4858C16.5211 9.33161 16.7915 9.1674 17.0701 9.01396C17.5361 8.72324 16.8039 9.18714 17.2899 8.85335C17.3266 8.82812 17.3712 8.81188 17.4092 8.78807C17.5207 8.7184 17.613 8.62705 17.7462 8.58343C17.8178 8.53124 17.8969 8.48584 17.9634 8.42916C17.9988 8.39893 18.0227 8.35999 18.0589 8.33039C18.0935 8.30213 18.1396 8.28489 18.1744 8.25683C18.4583 8.02811 18.0977 8.2683 18.3966 8.07874C18.627 7.88575 18.9133 7.74001 19.1251 7.53112C19.2375 7.45895 19.3397 7.37857 19.4506 7.30492C19.9432 6.97771 19.1933 7.47944 19.6829 7.16762C19.7226 7.14235 19.7582 7.11287 19.7958 7.08549C20.0365 6.92049 20.3158 6.78512 20.4923 6.5654C20.6362 6.44841 20.5696 6.51396 20.6895 6.36676C20.7211 6.34018 20.7671 6.32886 20.8035 6.30694C20.9071 6.2446 21.0115 6.17737 21.0952 6.09671C21.1234 6.07081 21.1447 6.03817 21.1798 6.01902C21.2104 6.0023 21.2511 6.00444 21.2851 5.99304C21.42 5.94767 21.5077 5.84246 21.6399 5.7916C21.6706 5.76226 21.6974 5.72981 21.7319 5.70358C21.8253 5.63251 21.8588 5.64107 21.957 5.57539C22.0635 5.50417 22.1465 5.4082 22.2371 5.32427C22.3718 5.16913 22.4808 5.00185 22.6016 4.83947C22.6287 4.77417 22.6269 4.6897 22.6074 4.62203C22.6004 4.61976 22.5752 4.61041 22.5701 4.61625C22.5625 4.62474 22.574 4.63868 22.5678 4.64787C22.5344 4.69723 22.4537 4.62698 22.4104 4.67334C22.1986 4.68017 22.4241 4.66674 22.2146 4.69841C22.0447 4.72409 21.8686 4.72974 21.7089 4.79241C21.43 4.88969 21.1449 4.9742 20.8892 5.11135C18.2888 6.0543 20.7736 5.15513 28.0362 2.18603C28.0785 2.16874 27.951 2.21966 27.9082 2.23607C27.8271 2.26717 27.7415 2.29067 27.6639 2.32751C27.6253 2.34581 27.5914 2.37019 27.5552 2.39153C27.3477 2.54838 27.5709 2.40575 27.3333 2.48672C27.2926 2.50061 27.2607 2.52848 27.2223 2.54637C27.1814 2.56536 27.136 2.57702 27.096 2.59714C27.007 2.64186 26.9345 2.70777 26.837 2.74186C26.7481 2.77892 26.6347 2.82314 26.5526 2.87008C26.3615 2.97931 26.2381 3.15151 26.033 3.24596C25.994 3.27461 25.955 3.30327 25.916 3.33192C25.8785 3.35384 25.8386 3.37321 25.8035 3.39767C25.6693 3.49097 25.5521 3.60357 25.3964 3.67533C25.1789 3.88024 25.4239 3.6648 25.1892 3.82841C25.0691 3.91218 24.9749 4.02591 24.8876 4.13273C24.8481 4.22865 24.811 4.29958 24.7419 4.38182C24.7207 4.407 24.7065 4.43656 24.6814 4.45903C24.6576 4.48027 24.6208 4.48934 24.5975 4.51089C24.5678 4.53827 24.549 4.57268 24.5247 4.60358C24.3297 4.76132 24.1344 4.92066 23.9793 5.10797C23.8844 5.22905 23.7782 5.34437 23.6628 5.4527C23.6224 5.49068 23.5737 5.52234 23.5348 5.56142C23.4927 5.60367 23.4587 5.65108 23.4206 5.69591L23.2989 5.81651C22.8263 6.17552 23.5139 5.64206 23.0638 6.02928C23.0095 6.076 22.8688 6.15251 22.8098 6.19391C22.7652 6.22521 22.7276 6.26316 22.6821 6.2936C22.6399 6.32187 22.5925 6.3442 22.5476 6.3695C22.1039 6.63215 22.7306 6.2518 22.2818 6.55743C22.2376 6.58757 22.1849 6.60799 22.1386 6.6359C22.0016 6.7185 21.8657 6.80628 21.7457 6.90573C21.6721 6.95797 21.593 7.00487 21.5213 7.05901C21.3736 7.17062 21.2515 7.30587 21.108 7.4211C20.8708 7.54137 21.0821 7.4252 20.8616 7.5741C20.8208 7.60165 20.7736 7.62236 20.7345 7.65159C20.6919 7.68337 20.6609 7.72503 20.6179 7.75629C20.5381 7.81413 20.432 7.84389 20.3659 7.91669C20.2022 8.02668 20.2799 7.9667 20.1336 8.09712C20.0964 8.12239 20.0503 8.13671 20.0097 8.15801C19.887 8.22243 19.7649 8.28486 19.6363 8.34128C19.3613 8.43888 19.1448 8.59032 18.9435 8.77383C18.8732 8.81419 18.8138 8.86738 18.7412 8.9048C18.7049 8.92351 18.6578 8.92495 18.6226 8.94509C18.5828 8.96786 18.561 9.00872 18.5208 9.03094C18.44 9.07554 18.3261 9.0679 18.2597 9.13713C18.1114 9.19174 18.1203 9.1822 17.9851 9.25704C17.9432 9.2802 17.9062 9.30939 17.8628 9.33044C17.7318 9.39393 17.5849 9.43284 17.4813 9.53307C17.4413 9.55866 17.4023 9.58547 17.3612 9.60983C17.3245 9.63162 17.2796 9.64468 17.2479 9.67139C17.2122 9.70135 17.1955 9.74411 17.1629 9.77645C17.0754 9.86347 16.9544 9.92714 16.8553 10.0038C16.6588 10.1831 16.86 10.0323 16.6169 10.1293C16.4596 10.192 16.5079 10.2125 16.3694 10.3027C16.3266 10.3306 16.2759 10.3487 16.2291 10.3717C16.1874 10.4012 16.1456 10.4307 16.1039 10.4603C15.9774 10.527 15.8528 10.5981 15.7311 10.6707C15.6881 10.6964 15.5582 10.7894 15.5065 10.8096C15.4685 10.8244 15.4255 10.8273 15.385 10.8362C15.2938 10.8939 15.2608 10.9195 15.1587 10.9648C15.1159 10.9838 15.0688 10.9956 15.0266 11.0155C14.9146 11.0684 14.8758 11.107 14.7735 11.1732C14.728 11.2027 14.6809 11.2302 14.6346 11.2587C14.3002 11.4425 13.981 11.6519 13.6123 11.7868C13.4434 11.8838 13.2696 11.958 13.0913 12.0417C13.0427 12.0645 12.997 12.0916 12.9469 12.1121C7.84484 14.199 7.87941 14.1849 5.26625 15.2418C4.98538 15.3669 5.27717 15.2448 5.0189 15.3323C4.9822 15.3447 4.87645 15.3902 4.91206 15.3757C7.35697 14.3816 14.6607 11.3478 12.2467 12.3934C5.47411 15.3274 7.42523 14.9505 4.57713 15.4873C4.48535 15.5157 4.39864 15.5564 4.30405 15.5775C4.11613 15.6192 3.91818 15.5891 3.7278 15.6055C3.50309 15.5746 3.27006 15.5898 3.05524 15.5129C2.78822 15.4274 2.54116 15.3095 2.28359 15.2069C1.97196 15.0846 1.66003 14.9494 1.39464 14.7644C1.35169 14.7355 1.30423 14.7107 1.26579 14.6776C1.02251 14.4683 0.884208 14.1586 0.933052 13.8697C2.28333 11.5042 -3.77688 15.582 8.56144 10.5627C8.56775 10.5601 8.77631 10.5785 8.78419 10.5782C8.82136 10.5767 8.85736 10.5668 8.89394 10.5612C9.20737 10.5358 9.52717 10.5727 9.83522 10.5009C10.1206 10.4372 10.3848 10.3293 10.6636 10.2491C10.8185 10.2045 10.9814 10.1606 11.131 10.1046C11.3042 10.0398 11.4684 9.95664 11.6532 9.91289C11.7694 9.86554 11.8817 9.81145 11.9999 9.76763C12.0596 9.74546 12.1236 9.73187 12.1834 9.70963C12.2383 9.6892 12.3972 9.61774 12.3432 9.63984C5.1197 12.5973 2.85093 13.775 5.27482 12.5225C5.27733 12.5215 5.5491 12.4074 5.55686 12.4033C5.60224 12.3797 5.63745 12.3429 5.68541 12.3231C8.25376 11.2622 10.8619 10.1318 13.5014 9.13059C15.9149 8.26177 4.07538 13.0176 6.41862 12.0239C8.9069 10.9691 11.4569 10.0174 13.9396 8.95372C16.3161 7.93567 9.13711 10.9074 6.73791 11.8872C6.63342 11.9298 7.15896 11.7281 7.05931 11.7737C7.10682 11.7456 7.15139 11.7137 7.20185 11.6894C7.24066 11.6708 7.46834 11.5928 7.50719 11.5762C7.65301 11.5142 7.79808 11.4476 7.93559 11.3736C8.21002 11.2037 7.92464 11.3697 8.22313 11.2282C8.27528 11.2035 8.32267 11.1723 8.37395 11.1463C8.52569 11.0694 8.69253 11.0229 8.83996 10.9397C9.15212 10.7728 8.83264 10.9346 9.17129 10.7908C9.4178 10.6862 9.64672 10.551 9.85566 10.4005C10.2291 10.1659 10.5641 9.89271 10.9132 9.63449C11.2432 9.37552 11.6057 9.148 11.9386 8.89122C12.2323 8.6356 12.5123 8.37044 12.7918 8.10462C12.9723 7.8809 13.1706 7.67172 13.405 7.48523C13.4868 7.4108 13.5614 7.33056 13.6481 7.26007C13.8356 7.10763 14.0644 6.99042 14.2152 6.80603C14.4108 6.61627 14.5768 6.38685 14.8349 6.25222C15.0573 6.00492 14.759 6.30213 14.995 6.15722C15.0267 6.13776 15.0355 6.0999 15.0638 6.07707C15.1459 6.01079 15.267 6.02456 15.3442 5.95195C15.5146 5.88814 15.388 5.94461 15.5451 5.84706C15.8898 5.63287 15.402 5.94289 15.7644 5.73789C15.8393 5.69555 15.8955 5.63267 15.9755 5.5957C16.0093 5.57815 16.0452 5.56305 16.0769 5.54305C16.1376 5.50487 16.1748 5.45938 16.2396 5.42596C16.2658 5.41245 16.2994 5.41015 16.3242 5.39485C16.3295 5.39155 16.464 5.26461 16.4662 5.26259C16.6719 5.19529 16.4419 5.29022 16.6147 5.134C16.6383 5.11266 16.6803 5.11289 16.7085 5.0958C16.803 5.03835 16.8669 4.94524 16.9503 4.87841C16.9788 4.84825 17.0036 4.81548 17.0356 4.78793C17.0939 4.73774 17.1798 4.69814 17.2376 4.64742C17.2672 4.62142 17.2855 4.58748 17.315 4.56137C17.5605 4.34372 17.2355 4.67455 17.4519 4.44793C17.5516 4.28519 17.5008 4.11124 17.5106 3.93461C17.5122 3.84425 17.5247 3.73845 17.498 3.64949C17.4971 3.64635 17.4979 3.65598 17.4979 3.65922C17.442 3.69422 17.4818 3.67988 17.4432 3.71882C17.3883 3.7743 17.2756 3.76853 17.2021 3.77189C16.9394 3.78995 16.6829 3.8361 16.4383 3.92029C16.2918 3.96039 16.1775 3.99131 16.0352 4.04208C15.9943 4.0567 15.8702 4.09787 15.9102 4.08162C23.1922 1.12891 25.8263 0.379907 23.149 1.14527C23.0153 1.21775 22.9943 1.19506 22.8687 1.23847C22.8379 1.24908 22.8134 1.26983 22.7832 1.28136C22.5918 1.35442 22.7791 1.25149 22.5992 1.36141C22.3422 1.48762 22.6696 1.31605 22.4151 1.48928C22.3856 1.50931 22.3467 1.51743 22.3158 1.53593C22.2201 1.5934 22.1444 1.67496 22.0458 1.72997C21.8978 1.9237 21.673 2.06717 21.5179 2.25828C21.2654 2.45061 21.556 2.21767 21.3195 2.44738C21.2542 2.51071 21.0716 2.65928 20.9903 2.70418C20.9515 2.72565 20.9051 2.73556 20.8625 2.75126C20.8277 2.78105 20.793 2.81086 20.7583 2.84065C20.7183 2.86072 20.6721 2.87398 20.6382 2.90085C20.599 2.93207 20.5781 2.97644 20.5435 3.01134C20.5094 3.04575 20.465 3.07266 20.4328 3.10826C20.2081 3.3559 20.4654 3.13657 20.2317 3.32254C20.038 3.55034 19.7567 3.71299 19.5157 3.90443C19.2949 4.05477 19.1022 4.22923 18.8966 4.39335C18.8467 4.43319 18.7864 4.46381 18.7396 4.50621C18.6907 4.55052 18.6541 4.60328 18.6113 4.65182C18.4708 4.75413 18.4729 4.74692 18.3468 4.86146C18.3072 4.89734 18.2757 4.93963 18.2317 4.97171C18.1943 4.99902 18.1462 5.01413 18.1053 5.03771C17.6225 5.31607 18.3324 4.9232 17.8709 5.17656C17.5072 5.43806 18.0305 5.07115 17.6562 5.30369C17.5144 5.39178 17.4038 5.5164 17.2486 5.59143C17.0689 5.6137 17.1351 5.63655 17.0037 5.71791C16.8444 5.81648 17.0151 5.70355 16.8437 5.77398C16.8165 5.78514 16.7958 5.80504 16.7719 5.82058C16.5882 5.9101 16.7995 5.79498 16.6246 5.93843C16.5385 6.00904 16.544 5.96424 16.4481 6.01838C16.4193 6.03467 16.3981 6.05886 16.3728 6.07883C16.3487 6.09776 16.3243 6.11632 16.3 6.13508C16.2216 6.19236 16.0747 6.26777 16.0171 6.33554C15.991 6.36625 15.9808 6.40473 15.9576 6.43703C15.9351 6.46825 15.9063 6.49592 15.8806 6.52537C15.7957 6.63393 15.6963 6.72104 15.5969 6.82026C15.5611 6.85598 15.5301 6.89513 15.4915 6.92873C15.1887 7.1922 15.5448 6.83349 15.2465 7.14638C14.9752 7.36846 14.7077 7.59368 14.4351 7.81468C14.4058 7.83796 14.2107 7.99166 14.1801 8.02076C14.1419 8.05716 14.1132 8.10009 14.0749 8.13645C13.9714 8.23475 13.8399 8.30855 13.7137 8.38415C11.5033 9.96371 5.31875 10.9361 5.3566 11.9346C4.79525 12.0856 4.213 12.165 3.62302 12.1796C3.01908 12.1872 2.4147 12.1904 1.81084 12.1792C1.40177 12.1647 0.987809 12.1512 0.652967 11.9289C0.372498 11.775 0.209582 11.5183 0.180369 11.2404C0.194204 11.0061 0.196992 10.763 0.333208 10.5517C0.404349 10.4559 0.449016 10.3457 0.533307 10.2571C0.558802 10.2304 0.59484 10.2114 0.619894 10.1843C0.896392 9.88559 0.500382 10.2601 0.80165 9.98363C0.961192 9.84921 0.855999 9.91578 1.06056 9.83262C3.10105 8.99982 6.33706 7.3631 9.13825 6.60316C9.79206 6.39378 10.4478 6.18907 11.0953 5.9659C11.48 5.83188 11.8693 5.70328 12.2487 5.55892C12.3621 5.51576 12.6973 5.37745 12.5853 5.42308C5.54036 8.29337 3.18066 9.07324 5.80204 8.20136C5.84768 8.17634 6.08103 8.04635 6.13641 8.02372C6.36011 7.93234 6.22575 8.02209 6.43268 7.92487C6.4771 7.904 6.51526 7.87485 6.55829 7.85202C6.59974 7.83003 6.64336 7.81103 6.6859 7.79054C6.85151 7.69557 6.77027 7.74754 6.92881 7.63376C6.97009 7.60991 7.01797 7.59516 7.06139 7.57413C7.18931 7.51218 7.29751 7.4321 7.41656 7.35956C7.51939 7.26844 7.6149 7.16205 7.72693 7.07894C7.76432 7.0512 7.81023 7.03234 7.8481 7.00507C7.8673 6.99124 8.06434 6.82227 8.07977 6.80909C8.39846 6.62477 8.58973 6.39383 8.82261 6.13955C8.86564 6.08754 8.90868 6.03553 8.95171 5.98352C8.9964 5.93358 9.0427 5.8846 9.08579 5.83368C9.13061 5.78073 9.16791 5.72334 9.21536 5.67201C9.26142 5.62219 9.31942 5.58065 9.36565 5.53094C9.46634 5.42268 9.54093 5.29853 9.64874 5.19445C9.79943 5.02931 9.92355 4.84638 10.0888 4.69116C10.1088 4.67235 10.1209 4.62968 10.1502 4.63577C10.1951 4.64513 10.2113 4.69395 10.2419 4.72304C10.3287 4.84862 10.4667 4.987 10.4857 5.13504C10.4964 5.21805 10.4215 5.25073 10.4254 5.24913C12.8934 4.24462 15.3522 3.22426 17.8156 2.2118C17.4812 2.34477 18.022 2.12028 17.6508 2.31249C17.6192 2.32886 17.5786 2.32871 17.545 2.34193C17.5088 2.35614 17.4786 2.37977 17.4426 2.39423C17.1357 2.51731 17.5203 2.33199 17.213 2.48663C17.0801 2.53129 16.9879 2.58785 16.8703 2.65404C16.8345 2.67421 16.7962 2.69106 16.7591 2.70957C16.7211 2.72106 16.6786 2.72521 16.645 2.74404C16.6094 2.76403 16.5866 2.79652 16.5573 2.82276C16.5221 2.82996 16.483 2.82932 16.4515 2.84435C16.4174 2.86059 16.3967 2.89133 16.3675 2.91323C16.3013 2.9629 16.2592 2.98974 16.179 3.02242C8.54943 6.13358 10.9445 4.77838 8.54078 6.14385C27.7233 -1.6947 8.54531 6.14347 8.21088 6.27817C5.77724 7.25835 17.934 2.33792 15.4953 3.30886C14.935 3.53198 -3.53371 11.0663 15.1907 3.42897C12.6846 4.45173 10.1796 5.4767 7.6722 6.4973C7.36621 6.62184 7.02087 6.66806 6.69565 6.74435C6.55249 6.7733 6.41177 6.81034 6.26844 6.83877C5.98181 6.89565 5.68545 6.91155 5.39784 6.96437C5.08843 6.96133 4.77975 6.95649 4.47021 6.95702C4.18375 6.95716 3.88434 6.96421 3.61011 6.88869C3.56909 6.86771 3.52299 6.85245 3.48707 6.82573C3.25228 6.65108 2.9637 6.28247 3.16898 6.02734C3.29681 5.97703 3.26583 5.94321 3.32726 5.84691C3.37172 5.77723 3.45051 5.71996 3.48108 5.64258C3.6715 5.52869 3.44075 5.6779 3.6361 5.50457C3.7042 5.44415 3.7838 5.42072 3.86203 5.37123C3.91027 5.34071 3.95365 5.30519 3.99946 5.27217L4.17393 5.16793C4.32967 5.09878 4.49095 5.03857 4.64653 4.96916C4.74231 4.92643 4.83164 4.87402 4.92787 4.83201C5.03441 4.78551 5.14718 4.74955 5.25423 4.70388C5.49189 4.60248 5.71683 4.48098 5.95955 4.38745C6.483 4.15091 7.00699 3.91499 7.53069 3.67976L15.5426 1.59449L15.5409 1.59378Z" fill="#1677FF"/>
<path d="M44.4714 4.48426e-05C44.4176 0.00122523 44.3564 0.0257404 44.301 0.0989933C44.2223 0.208861 33.9814 14.4565 31.6499 18.6641C31.7055 18.6823 31.7624 18.7009 31.8198 18.7214C32.1797 18.8499 32.5774 19.0256 33.0018 19.2649C33.5066 19.5494 34.0495 19.9238 34.6128 20.4146C37.1729 16.254 44.5833 0.430152 44.6408 0.30794C44.694 0.171085 44.6416 0.0727077 44.5872 0.0347019C44.5838 0.0323269 44.5801 0.0299902 44.5762 0.02767C44.5503 0.0124384 44.5132 -0.00087319 44.4714 4.48426e-05ZM31.3682 19.2036C31.3288 19.286 31.2952 19.3612 31.268 19.4281C30.4015 21.552 29.1026 24.1019 28.7432 25.0742C29.4321 25.1809 30.0307 25.5614 30.4249 26.1013C31.096 25.3158 32.6814 22.9476 34.1035 21.1685C34.1577 21.1007 34.2181 21.0188 34.2835 20.9244C33.7723 20.4714 33.2817 20.1235 32.8269 19.857C32.3867 19.5992 31.9799 19.4171 31.6183 19.288C31.5319 19.2571 31.4489 19.2287 31.3682 19.2036Z" fill="#747474"/>
<path d="M28.1975 30.6642C28.1866 30.6636 28.1784 30.664 28.1674 30.6632C28.0612 30.6564 27.9512 30.6477 27.8401 30.6371C27.729 30.6265 27.6167 30.614 27.5043 30.599C27.3918 30.5839 27.2795 30.5665 27.1694 30.5462C27.0594 30.5259 26.9512 30.5026 26.8471 30.4764C26.7431 30.4502 26.6433 30.4209 26.5489 30.388C26.5017 30.3715 26.4556 30.354 26.4115 30.3358C26.3674 30.3175 26.3253 30.2982 26.2847 30.278C26.2442 30.2578 26.2055 30.2369 26.1689 30.2147C26.1324 30.1925 26.0977 30.1692 26.0657 30.1449C26.0336 30.1206 26.0041 30.0955 25.9769 30.0691C25.9498 30.0426 25.925 30.0149 25.9033 29.9862C25.8815 29.9575 25.8626 29.9274 25.8466 29.8963C25.8307 29.8652 25.8177 29.8329 25.808 29.7993C25.7984 29.7658 25.7919 29.731 25.789 29.6949C25.7861 29.6588 25.7867 29.6216 25.791 29.5828C25.7953 29.5441 25.7971 29.5059 25.796 29.4688C25.7949 29.4318 25.7911 29.3957 25.785 29.3603C25.7788 29.3249 25.7702 29.2906 25.7594 29.2569C25.7486 29.2231 25.7355 29.1901 25.7203 29.1579C25.7051 29.1257 25.6879 29.0941 25.6687 29.0635C25.6495 29.0329 25.6284 29.0032 25.6055 28.9741C25.5826 28.945 25.5576 28.9168 25.5313 28.8892C25.5051 28.8616 25.4774 28.8344 25.4481 28.8083C25.4189 28.7822 25.3883 28.7572 25.3564 28.7325C25.3245 28.7078 25.2909 28.6839 25.2566 28.6607C25.2424 28.651 25.2261 28.643 25.2115 28.6335C24.6944 29.785 23.87 30.4982 22.1755 30.8144C21.8979 30.8662 21.9895 31.2052 22.1755 31.2052C24.1762 31.2052 26.4779 31.1958 28.1975 30.6642Z" fill="#80B5FF"/>
<path d="M28.1503 25.3328C26.8854 25.3328 25.8334 26.2469 25.6169 27.4519C25.5003 27.8881 25.3698 28.2807 25.2114 28.6332C25.226 28.6426 25.2423 28.6507 25.2565 28.6603C25.2908 28.6836 25.3243 28.7075 25.3563 28.7322C25.3882 28.7568 25.4187 28.7819 25.448 28.808C25.4773 28.8341 25.505 28.8613 25.5312 28.8889C25.5575 28.9165 25.5825 28.9447 25.6054 28.9738C25.6283 29.0028 25.6493 29.0326 25.6686 29.0632C25.6878 29.0938 25.705 29.1254 25.7202 29.1576C25.7354 29.1898 25.7485 29.2228 25.7593 29.2566C25.7701 29.2903 25.7787 29.3246 25.7849 29.36C25.791 29.3954 25.7948 29.4315 25.7959 29.4685C25.797 29.5056 25.7952 29.5438 25.7909 29.5825C25.7866 29.6213 25.786 29.6584 25.7889 29.6945C25.7918 29.7306 25.7983 29.7655 25.8079 29.799C25.8176 29.8326 25.8306 29.8649 25.8465 29.896C25.8625 29.927 25.8814 29.9571 25.9032 29.9859C25.9249 30.0146 25.9497 30.0423 25.9768 30.0687C26.004 30.0952 26.0335 30.1203 26.0656 30.1446C26.0976 30.1688 26.1323 30.1922 26.1688 30.2144C26.2054 30.2366 26.2441 30.2575 26.2846 30.2777C26.3252 30.2979 26.3673 30.3172 26.4114 30.3354C26.4555 30.3537 26.5016 30.3712 26.5488 30.3877C26.6432 30.4206 26.743 30.4498 26.847 30.4761C26.9511 30.5023 27.0592 30.5256 27.1693 30.5459C27.2794 30.5662 27.3917 30.5836 27.5041 30.5986C27.6166 30.6137 27.7288 30.6262 27.84 30.6368C27.9511 30.6474 28.0611 30.6561 28.1673 30.6629C28.1783 30.6636 28.1865 30.6633 28.1974 30.6639C29.1893 30.3573 29.9883 29.8779 30.4224 29.1244C30.6148 28.7631 30.7237 28.3501 30.7237 27.9119C30.7237 26.4875 29.5718 25.3328 28.1503 25.3328Z" fill="#80B5FF"/>
</svg>
